<?xml version="1.0" encoding="UTF-8"?>
<svg id="Calque_1" data-name="Calque 1" xmlns="http://www.w3.org/2000/svg" viewBox="0 0 5385.02 3541.83">
  <defs>
    <style>
      .cls-1 {
        stroke: #fff;
        stroke-miterlimit: 10;
      }

      .cls-1, .cls-2 {
        fill: #161c13;
      }

      .cls-3 {
        opacity: .08;
      }

      .cls-4 {
        opacity: .06;
      }
    </style>
  </defs>
  <g class="cls-4">
    <path class="cls-2" d="M277.15,398.71l-13.45,14.39c-8.66,9.27-24.2,3.33-24.48-9.35l-1.46-67.57c-1.86-86.12,58.74-139.99,165.01-142.28,106.27-2.29,169.59,48.91,171.45,135.03l1.46,67.57c.27,12.68-15,19.29-24.05,10.4l-14.06-13.8c-6.41-6.29-10.1-14.83-10.3-23.81l-.81-37.75c-1.22-56.49-44.18-89.55-122.61-87.86-78.43,1.69-119.47,36.56-118.25,93.05l.81,37.75c.19,8.98-3.13,17.67-9.26,24.23Z"/>
    <path class="cls-2" d="M347.33,130.51c4.34-24.12,35.08-36.14,72.65-29.38,25.31,4.55,39.06,18.87,36.14,35.08-4.63,25.7-34.29,36.29-71.07,29.67-26.89-4.84-40.86-17.97-37.73-35.37Z"/>
    <path class="cls-2" d="M467.81,480.97l4.98-.11c12.44-.27,20.47-12.87,28.77-32.46,8.37-16.1,15.63-25.97,31.39-26.31,24.06-.52,25.39,22.75,15.12,66.08-6.11,24.6-16.15,39.96-28.18,40.22-13.69.3-25.88-6.82-52.84-6.24l-109.93,2.37c-36.09.78-41.32,8.27-56.26,8.59-11.2.24-20.09-7.72-29.48-38.97-13.42-44.76-11.8-66.15,11.01-66.65,15.76-.34,23.85,9.19,32.91,24.92,9.12,18.83,18.11,31.45,29.72,31.2l5.39-.12"/>
    <path class="cls-2" d="M349.66,323.58c-6.94-4.5-14.71-7.95-14.96-19.82-.72-13.41,7.24-21.33,19.9-28.84,18.18-9.69,44.49-18.52,70.56-19.08,16.24-.35,26.61,4.59,27.06,25.76l2.86,152.31c.3,13.94,1.86,26.82,14.49,37.4,6.54,6.05,10.51,11.65,10.74,21.98.45,20.65-8.84,26.53-52.84,28l-32.48.7c-43.6.42-53.98-5.03-54.43-25.69-.22-10.32,3.07-16.08,9.78-22.42,11.74-10.59,12.72-24.55,12.45-37.46l-1.4-84.68c-.26-11.87-3.02-21.11-11.72-28.16Z"/>
    <path class="cls-1" d="M340.53,492.44c-.09-4.41.45-7.98,1.63-11.12"/>
    <path class="cls-1" d="M477.78,477.85c1.52,3.21,2.39,6.91,2.49,11.58"/>
  </g>
  <g class="cls-4">
    <path class="cls-2" d="M1016.95,233.67l13.45-14.39c8.66-9.27,24.2-3.33,24.48,9.35l1.46,67.57c1.86,86.12-58.74,139.99-165.01,142.28-106.27,2.29-169.59-48.91-171.45-135.03l-1.46-67.57c-.27-12.68,15-19.29,24.05-10.4l14.06,13.8c6.41,6.29,10.1,14.83,10.3,23.81l.81,37.75c1.22,56.49,44.18,89.55,122.61,87.86,78.43-1.69,119.47-36.56,118.25-93.05l-.81-37.75c-.19-8.98,3.13-17.67,9.26-24.23Z"/>
    <path class="cls-2" d="M946.76,501.87c-4.34,24.12-35.08,36.14-72.65,29.38-25.31-4.55-39.06-18.87-36.14-35.08,4.63-25.7,34.29-36.29,71.07-29.67,26.89,4.84,40.86,17.97,37.73,35.37Z"/>
    <path class="cls-2" d="M826.29,151.41l-4.98.11c-12.44.27-20.47,12.87-28.77,32.46-8.37,16.1-15.63,25.97-31.39,26.31-24.06.52-25.39-22.75-15.12-66.08,6.11-24.6,16.15-39.96,28.18-40.22,13.69-.3,25.88,6.82,52.84,6.24l109.93-2.37c36.09-.78,41.32-8.27,56.26-8.59,11.2-.24,20.09,7.72,29.48,38.97,13.42,44.76,11.8,66.15-11.01,66.65-15.76.34-23.85-9.19-32.91-24.92-9.12-18.83-18.11-31.45-29.72-31.2l-5.39.12"/>
    <path class="cls-2" d="M944.43,308.8c6.94,4.5,14.71,7.95,14.96,19.82.72,13.41-7.24,21.33-19.9,28.84-18.18,9.69-44.49,18.52-70.56,19.08-16.24.35-26.61-4.59-27.06-25.76l-2.86-152.31c-.3-13.94-1.86-26.82-14.49-37.4-6.54-6.05-10.51-11.65-10.74-21.98-.45-20.65,8.84-26.53,52.84-28l32.48-.7c43.6-.42,53.98,5.03,54.43,25.69.22,10.32-3.07,16.08-9.78,22.42-11.74,10.59-12.72,24.55-12.45,37.46l1.4,84.68c.26,11.87,3.02,21.11,11.72,28.16Z"/>
    <path class="cls-1" d="M953.57,139.94c.09,4.41-.45,7.98-1.63,11.12"/>
    <path class="cls-1" d="M816.31,154.53c-1.52-3.21-2.39-6.91-2.49-11.58"/>
  </g>
  <g class="cls-4">
    <path class="cls-2" d="M1357.57,138.69l-14.39-13.45c-9.27-8.66-3.33-24.2,9.35-24.48l67.57-1.46c86.12-1.86,139.99,58.74,142.28,165.01,2.29,106.27-48.91,169.59-135.03,171.45l-67.57,1.46c-12.68.27-19.29-15-10.4-24.05l13.8-14.06c6.29-6.41,14.83-10.1,23.81-10.3l37.75-.81c56.49-1.22,89.55-44.18,87.86-122.61-1.69-78.43-36.56-119.47-93.05-118.25l-37.75.81c-8.98.19-17.67-3.13-24.23-9.26Z"/>
    <path class="cls-2" d="M1625.77,208.87c24.12,4.34,36.14,35.08,29.38,72.65-4.55,25.31-18.87,39.06-35.08,36.14-25.7-4.63-36.29-34.29-29.67-71.07,4.84-26.89,17.97-40.86,35.37-37.73Z"/>
    <path class="cls-2" d="M1275.3,329.35l.11,4.98c.27,12.44,12.87,20.47,32.46,28.77,16.1,8.37,25.97,15.63,26.31,31.39.52,24.06-22.75,25.39-66.08,15.12-24.6-6.11-39.96-16.15-40.22-28.18-.3-13.69,6.82-25.88,6.24-52.84l-2.37-109.93c-.78-36.09-8.27-41.32-8.59-56.26-.24-11.2,7.72-20.09,38.97-29.48,44.76-13.42,66.15-11.8,66.65,11.01.34,15.76-9.19,23.85-24.92,32.91-18.83,9.12-31.45,18.11-31.2,29.72l.12,5.39"/>
    <path class="cls-2" d="M1432.7,211.21c4.5-6.94,7.95-14.71,19.82-14.96,13.41-.72,21.33,7.24,28.84,19.9,9.69,18.18,18.52,44.49,19.08,70.56.35,16.24-4.59,26.61-25.76,27.06l-152.31,2.86c-13.94.3-26.82,1.86-37.4,14.49-6.05,6.54-11.65,10.51-21.98,10.74-20.65.45-26.53-8.84-28-52.84l-.7-32.48c-.42-43.6,5.03-53.98,25.69-54.43,10.32-.22,16.08,3.07,22.42,9.78,10.59,11.74,24.55,12.72,37.46,12.45l84.68-1.4c11.87-.26,21.11-3.02,28.16-11.72Z"/>
    <path class="cls-1" d="M1263.84,202.07c4.41-.09,7.98.45,11.12,1.63"/>
    <path class="cls-1" d="M1278.43,339.33c-3.21,1.52-6.91,2.39-11.58,2.49"/>
  </g>
  <g class="cls-4">
    <path class="cls-2" d="M1801.15,398.71l-13.45,14.39c-8.66,9.27-24.2,3.33-24.48-9.35l-1.46-67.57c-1.86-86.12,58.74-139.99,165.01-142.28,106.27-2.29,169.59,48.91,171.45,135.03l1.46,67.57c.27,12.68-15,19.29-24.05,10.4l-14.06-13.8c-6.41-6.29-10.1-14.83-10.3-23.81l-.81-37.75c-1.22-56.49-44.18-89.55-122.61-87.86-78.43,1.69-119.47,36.56-118.25,93.05l.81,37.75c.19,8.98-3.13,17.67-9.26,24.23Z"/>
    <path class="cls-2" d="M1871.33,130.51c4.34-24.12,35.08-36.14,72.65-29.38,25.31,4.55,39.06,18.87,36.14,35.08-4.63,25.7-34.29,36.29-71.07,29.67-26.89-4.84-40.86-17.97-37.73-35.37Z"/>
    <path class="cls-2" d="M1991.81,480.97l4.98-.11c12.44-.27,20.47-12.87,28.77-32.46,8.37-16.1,15.63-25.97,31.39-26.31,24.06-.52,25.39,22.75,15.12,66.08-6.11,24.6-16.15,39.96-28.18,40.22-13.69.3-25.88-6.82-52.84-6.24l-109.93,2.37c-36.09.78-41.32,8.27-56.26,8.59-11.2.24-20.09-7.72-29.48-38.97-13.42-44.76-11.8-66.15,11.01-66.65,15.76-.34,23.85,9.19,32.91,24.92,9.12,18.83,18.11,31.45,29.72,31.2l5.39-.12"/>
    <path class="cls-2" d="M1873.67,323.58c-6.94-4.5-14.71-7.95-14.96-19.82-.72-13.41,7.24-21.33,19.9-28.84,18.18-9.69,44.49-18.52,70.56-19.08,16.24-.35,26.61,4.59,27.06,25.76l2.86,152.31c.3,13.94,1.86,26.82,14.49,37.4,6.54,6.05,10.51,11.65,10.74,21.98.45,20.65-8.84,26.53-52.84,28l-32.48.7c-43.6.42-53.98-5.03-54.43-25.69-.22-10.32,3.07-16.08,9.78-22.42,11.74-10.59,12.72-24.55,12.45-37.46l-1.4-84.68c-.26-11.87-3.02-21.11-11.72-28.16Z"/>
    <path class="cls-1" d="M1864.53,492.44c-.09-4.41.45-7.98,1.63-11.12"/>
    <path class="cls-1" d="M2001.79,477.85c1.52,3.21,2.39,6.91,2.49,11.58"/>
  </g>
  <g class="cls-4">
    <path class="cls-2" d="M2540.95,233.67l13.45-14.39c8.66-9.27,24.2-3.33,24.48,9.35l1.46,67.57c1.86,86.12-58.74,139.99-165.01,142.28-106.27,2.29-169.59-48.91-171.45-135.03l-1.46-67.57c-.27-12.68,15-19.29,24.05-10.4l14.06,13.8c6.41,6.29,10.1,14.83,10.3,23.81l.81,37.75c1.22,56.49,44.18,89.55,122.61,87.86,78.43-1.69,119.47-36.56,118.25-93.05l-.81-37.75c-.19-8.98,3.13-17.67,9.26-24.23Z"/>
    <path class="cls-2" d="M2470.77,501.87c-4.34,24.12-35.08,36.14-72.65,29.38-25.31-4.55-39.06-18.87-36.14-35.08,4.63-25.7,34.29-36.29,71.07-29.67,26.89,4.84,40.86,17.97,37.73,35.37Z"/>
    <path class="cls-2" d="M2350.29,151.41l-4.98.11c-12.44.27-20.47,12.87-28.77,32.46-8.37,16.1-15.63,25.97-31.39,26.31-24.06.52-25.39-22.75-15.12-66.08,6.11-24.6,16.15-39.96,28.18-40.22,13.69-.3,25.88,6.82,52.84,6.24l109.93-2.37c36.09-.78,41.32-8.27,56.26-8.59,11.2-.24,20.09,7.72,29.48,38.97,13.42,44.76,11.8,66.15-11.01,66.65-15.76.34-23.85-9.19-32.91-24.92-9.12-18.83-18.11-31.45-29.72-31.2l-5.39.12"/>
    <path class="cls-2" d="M2468.43,308.8c6.94,4.5,14.71,7.95,14.96,19.82.72,13.41-7.24,21.33-19.9,28.84-18.18,9.69-44.49,18.52-70.56,19.08-16.24.35-26.61-4.59-27.06-25.76l-2.86-152.31c-.3-13.94-1.86-26.82-14.49-37.4-6.54-6.05-10.51-11.65-10.74-21.98-.45-20.65,8.84-26.53,52.84-28l32.48-.7c43.6-.42,53.98,5.03,54.43,25.69.22,10.32-3.07,16.08-9.78,22.42-11.74,10.59-12.72,24.55-12.45,37.46l1.4,84.68c.26,11.87,3.02,21.11,11.72,28.16Z"/>
    <path class="cls-1" d="M2477.57,139.94c.09,4.41-.45,7.98-1.63,11.12"/>
    <path class="cls-1" d="M2340.31,154.53c-1.52-3.21-2.39-6.91-2.49-11.58"/>
  </g>
  <g class="cls-4">
    <path class="cls-2" d="M2881.58,138.69l-14.39-13.45c-9.27-8.66-3.33-24.2,9.35-24.48l67.57-1.46c86.12-1.86,139.99,58.74,142.28,165.01,2.29,106.27-48.91,169.59-135.03,171.45l-67.57,1.46c-12.68.27-19.29-15-10.4-24.05l13.8-14.06c6.29-6.41,14.83-10.1,23.81-10.3l37.75-.81c56.49-1.22,89.55-44.18,87.86-122.61-1.69-78.43-36.56-119.47-93.05-118.25l-37.75.81c-8.98.19-17.67-3.13-24.23-9.26Z"/>
    <path class="cls-2" d="M3149.77,208.87c24.12,4.34,36.14,35.08,29.38,72.65-4.55,25.31-18.87,39.06-35.08,36.14-25.7-4.63-36.29-34.29-29.67-71.07,4.84-26.89,17.97-40.86,35.37-37.73Z"/>
    <path class="cls-2" d="M2799.31,329.35l.11,4.98c.27,12.44,12.87,20.47,32.46,28.77,16.1,8.37,25.97,15.63,26.31,31.39.52,24.06-22.75,25.39-66.08,15.12-24.6-6.11-39.96-16.15-40.22-28.18-.3-13.69,6.82-25.88,6.24-52.84l-2.37-109.93c-.78-36.09-8.27-41.32-8.59-56.26-.24-11.2,7.72-20.09,38.97-29.48,44.76-13.42,66.15-11.8,66.65,11.01.34,15.76-9.19,23.85-24.92,32.91-18.83,9.12-31.45,18.11-31.2,29.72l.12,5.39"/>
    <path class="cls-2" d="M2956.7,211.21c4.5-6.94,7.95-14.71,19.82-14.96,13.41-.72,21.33,7.24,28.84,19.9,9.69,18.18,18.52,44.49,19.08,70.56.35,16.24-4.59,26.61-25.76,27.06l-152.31,2.86c-13.94.3-26.82,1.86-37.4,14.49-6.05,6.54-11.65,10.51-21.98,10.74-20.65.45-26.53-8.84-28-52.84l-.7-32.48c-.42-43.6,5.03-53.98,25.69-54.43,10.32-.22,16.08,3.07,22.42,9.78,10.59,11.74,24.55,12.72,37.46,12.45l84.68-1.4c11.87-.26,21.11-3.02,28.16-11.72Z"/>
    <path class="cls-1" d="M2787.85,202.07c4.41-.09,7.98.45,11.12,1.63"/>
    <path class="cls-1" d="M2802.43,339.33c-3.21,1.52-6.91,2.39-11.58,2.49"/>
  </g>
  <g class="cls-4">
    <path class="cls-2" d="M3326.44,398.71l-13.45,14.39c-8.66,9.27-24.2,3.33-24.48-9.35l-1.46-67.57c-1.86-86.12,58.74-139.99,165.01-142.28,106.27-2.29,169.59,48.91,171.45,135.03l1.46,67.57c.27,12.68-15,19.29-24.05,10.4l-14.06-13.8c-6.41-6.29-10.1-14.83-10.3-23.81l-.81-37.75c-1.22-56.49-44.18-89.55-122.61-87.86-78.43,1.69-119.47,36.56-118.25,93.05l.81,37.75c.19,8.98-3.13,17.67-9.26,24.23Z"/>
    <path class="cls-2" d="M3396.62,130.51c4.34-24.12,35.08-36.14,72.65-29.38,25.31,4.55,39.06,18.87,36.14,35.08-4.63,25.7-34.29,36.29-71.07,29.67-26.89-4.84-40.86-17.97-37.73-35.37Z"/>
    <path class="cls-2" d="M3517.1,480.97l4.98-.11c12.44-.27,20.47-12.87,28.77-32.46,8.37-16.1,15.63-25.97,31.39-26.31,24.06-.52,25.39,22.75,15.12,66.08-6.11,24.6-16.15,39.96-28.18,40.22-13.69.3-25.88-6.82-52.84-6.24l-109.93,2.37c-36.09.78-41.32,8.27-56.26,8.59-11.2.24-20.09-7.72-29.48-38.97-13.42-44.76-11.8-66.15,11.01-66.65,15.76-.34,23.85,9.19,32.91,24.92,9.12,18.83,18.11,31.45,29.72,31.2l5.39-.12"/>
    <path class="cls-2" d="M3398.96,323.58c-6.94-4.5-14.71-7.95-14.96-19.82-.72-13.41,7.24-21.33,19.9-28.84,18.18-9.69,44.49-18.52,70.56-19.08,16.24-.35,26.61,4.59,27.06,25.76l2.86,152.31c.3,13.94,1.86,26.82,14.49,37.4,6.54,6.05,10.51,11.65,10.74,21.98.45,20.65-8.84,26.53-52.84,28l-32.48.7c-43.6.42-53.98-5.03-54.43-25.69-.22-10.32,3.07-16.08,9.78-22.42,11.74-10.59,12.72-24.55,12.45-37.46l-1.4-84.68c-.26-11.87-3.02-21.11-11.72-28.16Z"/>
    <path class="cls-1" d="M3389.82,492.44c-.09-4.41.45-7.98,1.63-11.12"/>
    <path class="cls-1" d="M3527.08,477.85c1.52,3.21,2.39,6.91,2.49,11.58"/>
  </g>
  <g class="cls-4">
    <path class="cls-2" d="M4066.24,233.67l13.45-14.39c8.66-9.27,24.2-3.33,24.48,9.35l1.46,67.57c1.86,86.12-58.74,139.99-165.01,142.28-106.27,2.29-169.59-48.91-171.45-135.03l-1.46-67.57c-.27-12.68,15-19.29,24.05-10.4l14.06,13.8c6.41,6.29,10.1,14.83,10.3,23.81l.81,37.75c1.22,56.49,44.18,89.55,122.61,87.86,78.43-1.69,119.47-36.56,118.25-93.05l-.81-37.75c-.19-8.98,3.13-17.67,9.26-24.23Z"/>
    <path class="cls-2" d="M3996.05,501.87c-4.34,24.12-35.08,36.14-72.65,29.38-25.31-4.55-39.06-18.87-36.14-35.08,4.63-25.7,34.29-36.29,71.07-29.67,26.89,4.84,40.86,17.97,37.73,35.37Z"/>
    <path class="cls-2" d="M3875.58,151.41l-4.98.11c-12.44.27-20.47,12.87-28.77,32.46-8.37,16.1-15.63,25.97-31.39,26.31-24.06.52-25.39-22.75-15.12-66.08,6.11-24.6,16.15-39.96,28.18-40.22,13.69-.3,25.88,6.82,52.84,6.24l109.93-2.37c36.09-.78,41.32-8.27,56.26-8.59,11.2-.24,20.09,7.72,29.48,38.97,13.42,44.76,11.8,66.15-11.01,66.65-15.76.34-23.85-9.19-32.91-24.92-9.12-18.83-18.11-31.45-29.72-31.2l-5.39.12"/>
    <path class="cls-2" d="M3993.72,308.8c6.94,4.5,14.71,7.95,14.96,19.82.72,13.41-7.24,21.33-19.9,28.84-18.18,9.69-44.49,18.52-70.56,19.08-16.24.35-26.61-4.59-27.06-25.76l-2.86-152.31c-.3-13.94-1.86-26.82-14.49-37.4-6.54-6.05-10.51-11.65-10.74-21.98-.45-20.65,8.84-26.53,52.84-28l32.48-.7c43.6-.42,53.98,5.03,54.43,25.69.22,10.32-3.07,16.08-9.78,22.42-11.74,10.59-12.72,24.55-12.45,37.46l1.4,84.68c.26,11.87,3.02,21.11,11.72,28.16Z"/>
    <path class="cls-1" d="M4002.86,139.94c.09,4.41-.45,7.98-1.63,11.12"/>
    <path class="cls-1" d="M3865.6,154.53c-1.52-3.21-2.39-6.91-2.49-11.58"/>
  </g>
  <g class="cls-4">
    <path class="cls-2" d="M4406.86,138.69l-14.39-13.45c-9.27-8.66-3.33-24.2,9.35-24.48l67.57-1.46c86.12-1.86,139.99,58.74,142.28,165.01,2.29,106.27-48.91,169.59-135.03,171.45l-67.57,1.46c-12.68.27-19.29-15-10.4-24.05l13.8-14.06c6.29-6.41,14.83-10.1,23.81-10.3l37.75-.81c56.49-1.22,89.55-44.18,87.86-122.61-1.69-78.43-36.56-119.47-93.05-118.25l-37.75.81c-8.98.19-17.67-3.13-24.23-9.26Z"/>
    <path class="cls-2" d="M4675.06,208.87c24.12,4.34,36.14,35.08,29.38,72.65-4.55,25.31-18.87,39.06-35.08,36.14-25.7-4.63-36.29-34.29-29.67-71.07,4.84-26.89,17.97-40.86,35.37-37.73Z"/>
    <path class="cls-2" d="M4324.6,329.35l.11,4.98c.27,12.44,12.87,20.47,32.46,28.77,16.1,8.37,25.97,15.63,26.31,31.39.52,24.06-22.75,25.39-66.08,15.12-24.6-6.11-39.96-16.15-40.22-28.18-.3-13.69,6.82-25.88,6.24-52.84l-2.37-109.93c-.78-36.09-8.27-41.32-8.59-56.26-.24-11.2,7.72-20.09,38.97-29.48,44.76-13.42,66.15-11.8,66.65,11.01.34,15.76-9.19,23.85-24.92,32.91-18.83,9.12-31.45,18.11-31.2,29.72l.12,5.39"/>
    <path class="cls-2" d="M4481.99,211.21c4.5-6.94,7.95-14.71,19.82-14.96,13.41-.72,21.33,7.24,28.84,19.9,9.69,18.18,18.52,44.49,19.08,70.56.35,16.24-4.59,26.61-25.76,27.06l-152.31,2.86c-13.94.3-26.82,1.86-37.4,14.49-6.05,6.54-11.65,10.51-21.98,10.74-20.65.45-26.53-8.84-28-52.84l-.7-32.48c-.42-43.6,5.03-53.98,25.69-54.43,10.32-.22,16.08,3.07,22.42,9.78,10.59,11.74,24.55,12.72,37.46,12.45l84.68-1.4c11.87-.26,21.11-3.02,28.16-11.72Z"/>
    <path class="cls-1" d="M4313.13,202.07c4.41-.09,7.98.45,11.12,1.63"/>
    <path class="cls-1" d="M4327.72,339.33c-3.21,1.52-6.91,2.39-11.58,2.49"/>
  </g>
  <g class="cls-4">
    <path class="cls-2" d="M2838.63,1005.73l-13.45,14.39c-8.66,9.27-24.2,3.33-24.48-9.35l-1.46-67.57c-1.86-86.12,58.74-139.99,165.01-142.28,106.27-2.29,169.59,48.91,171.45,135.03l1.46,67.57c.27,12.68-15,19.29-24.05,10.4l-14.06-13.8c-6.41-6.29-10.1-14.83-10.3-23.81l-.81-37.75c-1.22-56.49-44.18-89.55-122.61-87.86-78.43,1.69-119.47,36.56-118.25,93.05l.81,37.75c.19,8.98-3.13,17.67-9.26,24.23Z"/>
    <path class="cls-2" d="M2908.81,737.54c4.34-24.12,35.08-36.14,72.65-29.38,25.31,4.55,39.06,18.87,36.14,35.08-4.63,25.7-34.29,36.29-71.07,29.67-26.89-4.84-40.86-17.97-37.73-35.37Z"/>
    <path class="cls-2" d="M3029.29,1088l4.98-.11c12.44-.27,20.47-12.87,28.77-32.46,8.37-16.1,15.63-25.97,31.39-26.31,24.06-.52,25.39,22.75,15.12,66.08-6.11,24.6-16.15,39.96-28.18,40.22-13.69.3-25.88-6.82-52.84-6.24l-109.93,2.37c-36.09.78-41.32,8.27-56.26,8.59-11.2.24-20.09-7.72-29.48-38.97-13.42-44.76-11.8-66.15,11.01-66.65,15.76-.34,23.85,9.19,32.91,24.92,9.12,18.83,18.11,31.45,29.72,31.2l5.39-.12"/>
    <path class="cls-2" d="M2911.15,930.61c-6.94-4.5-14.71-7.95-14.96-19.82-.72-13.41,7.24-21.33,19.9-28.84,18.18-9.69,44.49-18.52,70.56-19.08,16.24-.35,26.61,4.59,27.06,25.76l2.86,152.31c.3,13.94,1.86,26.82,14.49,37.4,6.54,6.05,10.51,11.65,10.74,21.98.45,20.65-8.84,26.53-52.84,28l-32.48.7c-43.6.42-53.98-5.03-54.43-25.69-.22-10.32,3.07-16.08,9.78-22.42,11.74-10.59,12.72-24.55,12.45-37.46l-1.4-84.68c-.26-11.87-3.02-21.11-11.72-28.16Z"/>
    <path class="cls-1" d="M2902.01,1099.46c-.09-4.41.45-7.98,1.63-11.12"/>
    <path class="cls-1" d="M3039.27,1084.88c1.52,3.21,2.39,6.91,2.49,11.58"/>
  </g>
  <g class="cls-4">
    <path class="cls-2" d="M531.45,840.7l13.45-14.39c8.66-9.27,24.2-3.33,24.48,9.35l1.46,67.57c1.86,86.12-58.74,139.99-165.01,142.28-106.27,2.29-169.59-48.91-171.45-135.03l-1.46-67.57c-.27-12.68,15-19.29,24.05-10.4l14.06,13.8c6.41,6.29,10.1,14.83,10.3,23.81l.81,37.75c1.22,56.49,44.18,89.55,122.61,87.86,78.43-1.69,119.47-36.56,118.25-93.05l-.81-37.75c-.19-8.98,3.13-17.67,9.26-24.23Z"/>
    <path class="cls-2" d="M461.27,1108.9c-4.34,24.12-35.08,36.14-72.65,29.38-25.31-4.55-39.06-18.87-36.14-35.08,4.63-25.7,34.29-36.29,71.07-29.67,26.89,4.84,40.86,17.97,37.73,35.37Z"/>
    <path class="cls-2" d="M340.8,758.43l-4.98.11c-12.44.27-20.47,12.87-28.77,32.46-8.37,16.1-15.63,25.97-31.39,26.31-24.06.52-25.39-22.75-15.12-66.08,6.11-24.6,16.15-39.96,28.18-40.22,13.69-.3,25.88,6.82,52.84,6.24l109.93-2.37c36.09-.78,41.32-8.27,56.26-8.59,11.2-.24,20.09,7.72,29.48,38.97,13.42,44.76,11.8,66.15-11.01,66.65-15.76.34-23.85-9.19-32.91-24.92-9.12-18.83-18.11-31.45-29.72-31.2l-5.39.12"/>
    <path class="cls-2" d="M458.94,915.83c6.94,4.5,14.71,7.95,14.96,19.82.72,13.41-7.24,21.33-19.9,28.84-18.18,9.69-44.49,18.52-70.56,19.08-16.24.35-26.61-4.59-27.06-25.76l-2.86-152.31c-.3-13.94-1.86-26.82-14.49-37.4-6.54-6.05-10.51-11.65-10.74-21.98-.45-20.65,8.84-26.53,52.84-28l32.48-.7c43.6-.42,53.98,5.03,54.43,25.69.22,10.32-3.07,16.08-9.78,22.42-11.74,10.59-12.72,24.55-12.45,37.46l1.4,84.68c.26,11.87,3.02,21.11,11.72,28.16Z"/>
    <path class="cls-1" d="M468.08,746.97c.09,4.41-.45,7.98-1.63,11.12"/>
    <path class="cls-1" d="M330.82,761.56c-1.52-3.21-2.39-6.91-2.49-11.58"/>
  </g>
  <g class="cls-4">
    <path class="cls-2" d="M2027.48,1004.82l14.39,13.45c9.27,8.66,3.33,24.2-9.35,24.48l-67.57,1.46c-86.12,1.86-139.99-58.74-142.28-165.01-2.29-106.27,48.91-169.59,135.03-171.45l67.57-1.46c12.68-.27,19.29,15,10.4,24.05l-13.8,14.06c-6.29,6.41-14.83,10.1-23.81,10.3l-37.75.81c-56.49,1.22-89.55,44.18-87.86,122.61,1.69,78.43,36.56,119.47,93.05,118.25l37.75-.81c8.98-.19,17.67,3.13,24.23,9.26Z"/>
    <path class="cls-2" d="M1759.28,934.64c-24.12-4.34-36.14-35.08-29.38-72.65,4.55-25.31,18.87-39.06,35.08-36.14,25.7,4.63,36.29,34.29,29.67,71.07-4.84,26.89-17.97,40.86-35.37,37.73Z"/>
    <path class="cls-2" d="M2109.74,814.16l-.11-4.98c-.27-12.44-12.87-20.47-32.46-28.77-16.1-8.37-25.97-15.63-26.31-31.39-.52-24.06,22.75-25.39,66.08-15.12,24.6,6.11,39.96,16.15,40.22,28.18.3,13.69-6.82,25.88-6.24,52.84l2.37,109.93c.78,36.09,8.27,41.32,8.59,56.26.24,11.2-7.72,20.09-38.97,29.48-44.76,13.42-66.15,11.8-66.65-11.01-.34-15.76,9.19-23.85,24.92-32.91,18.83-9.12,31.45-18.11,31.2-29.72l-.12-5.39"/>
    <path class="cls-2" d="M1952.35,932.3c-4.5,6.94-7.95,14.71-19.82,14.96-13.41.72-21.33-7.24-28.84-19.9-9.69-18.18-18.52-44.49-19.08-70.56-.35-16.24,4.59-26.61,25.76-27.06l152.31-2.86c13.94-.3,26.82-1.86,37.4-14.49,6.05-6.54,11.65-10.51,21.98-10.74,20.65-.45,26.53,8.84,28,52.84l.7,32.48c.42,43.6-5.03,53.98-25.69,54.43-10.32.22-16.08-3.07-22.42-9.78-10.59-11.74-24.55-12.72-37.46-12.45l-84.68,1.4c-11.87.26-21.11,3.02-28.16,11.72Z"/>
    <path class="cls-1" d="M2121.21,941.44c-4.41.09-7.98-.45-11.12-1.63"/>
    <path class="cls-1" d="M2106.62,804.18c3.21-1.52,6.91-2.39,11.58-2.49"/>
  </g>
  <g class="cls-4">
    <path class="cls-2" d="M1306.31,1005.73l-13.45,14.39c-8.66,9.27-24.2,3.33-24.48-9.35l-1.46-67.57c-1.86-86.12,58.74-139.99,165.01-142.28,106.27-2.29,169.59,48.91,171.45,135.03l1.46,67.57c.27,12.68-15,19.29-24.05,10.4l-14.06-13.8c-6.41-6.29-10.1-14.83-10.3-23.81l-.81-37.75c-1.22-56.49-44.18-89.55-122.61-87.86-78.43,1.69-119.47,36.56-118.25,93.05l.81,37.75c.19,8.98-3.13,17.67-9.26,24.23Z"/>
    <path class="cls-2" d="M1376.49,737.54c4.34-24.12,35.08-36.14,72.65-29.38,25.31,4.55,39.06,18.87,36.14,35.08-4.63,25.7-34.29,36.29-71.07,29.67-26.89-4.84-40.86-17.97-37.73-35.37Z"/>
    <path class="cls-2" d="M1496.97,1088l4.98-.11c12.44-.27,20.47-12.87,28.77-32.46,8.37-16.1,15.63-25.97,31.39-26.31,24.06-.52,25.39,22.75,15.12,66.08-6.11,24.6-16.15,39.96-28.18,40.22-13.69.3-25.88-6.82-52.84-6.24l-109.93,2.37c-36.09.78-41.32,8.27-56.26,8.59-11.2.24-20.09-7.72-29.48-38.97-13.42-44.76-11.8-66.15,11.01-66.65,15.76-.34,23.85,9.19,32.91,24.92,9.12,18.83,18.11,31.45,29.72,31.2l5.39-.12"/>
    <path class="cls-2" d="M1378.83,930.61c-6.94-4.5-14.71-7.95-14.96-19.82-.72-13.41,7.24-21.33,19.9-28.84,18.18-9.69,44.49-18.52,70.56-19.08,16.24-.35,26.61,4.59,27.06,25.76l2.86,152.31c.3,13.94,1.86,26.82,14.49,37.4,6.54,6.05,10.51,11.65,10.74,21.98.45,20.65-8.84,26.53-52.84,28l-32.48.7c-43.6.42-53.98-5.03-54.43-25.69-.22-10.32,3.07-16.08,9.78-22.42,11.74-10.59,12.72-24.55,12.45-37.46l-1.4-84.68c-.26-11.87-3.02-21.11-11.72-28.16Z"/>
    <path class="cls-1" d="M1369.69,1099.46c-.09-4.41.45-7.98,1.63-11.12"/>
    <path class="cls-1" d="M1506.95,1084.88c1.52,3.21,2.39,6.91,2.49,11.58"/>
  </g>
  <g class="cls-4">
    <path class="cls-2" d="M2616.71,789.68l13.45-14.39c8.66-9.27,24.2-3.33,24.48,9.35l1.46,67.57c1.86,86.12-58.74,139.99-165.01,142.28-106.27,2.29-169.59-48.91-171.45-135.03l-1.46-67.57c-.27-12.68,15-19.29,24.05-10.4l14.06,13.8c6.41,6.29,10.1,14.83,10.3,23.81l.81,37.75c1.22,56.49,44.18,89.55,122.61,87.86,78.43-1.69,119.47-36.56,118.25-93.05l-.81-37.75c-.19-8.98,3.13-17.67,9.26-24.23Z"/>
    <path class="cls-2" d="M2546.53,1057.87c-4.34,24.12-35.08,36.14-72.65,29.38-25.31-4.55-39.06-18.87-36.14-35.08,4.63-25.7,34.29-36.29,71.07-29.67,26.89,4.84,40.86,17.97,37.73,35.37Z"/>
    <path class="cls-2" d="M2426.05,707.41l-4.98.11c-12.44.27-20.47,12.87-28.77,32.46-8.37,16.1-15.63,25.97-31.39,26.31-24.06.52-25.39-22.75-15.12-66.08,6.11-24.6,16.15-39.96,28.18-40.22,13.69-.3,25.88,6.82,52.84,6.24l109.93-2.37c36.09-.78,41.32-8.27,56.26-8.59,11.2-.24,20.09,7.72,29.48,38.97,13.42,44.76,11.8,66.15-11.01,66.65-15.76.34-23.85-9.19-32.91-24.92-9.12-18.83-18.11-31.45-29.72-31.2l-5.39.12"/>
    <path class="cls-2" d="M2544.19,864.8c6.94,4.5,14.71,7.95,14.96,19.82.72,13.41-7.24,21.33-19.9,28.84-18.18,9.69-44.49,18.52-70.56,19.08-16.24.35-26.61-4.59-27.06-25.76l-2.86-152.31c-.3-13.94-1.86-26.82-14.49-37.4-6.54-6.05-10.51-11.65-10.74-21.98-.45-20.65,8.84-26.53,52.84-28l32.48-.7c43.6-.42,53.98,5.03,54.43,25.69.22,10.32-3.07,16.08-9.78,22.42-11.74,10.59-12.72,24.55-12.45,37.46l1.4,84.68c.26,11.87,3.02,21.11,11.72,28.16Z"/>
    <path class="cls-1" d="M2553.33,695.95c.09,4.41-.45,7.98-1.63,11.12"/>
    <path class="cls-1" d="M2416.08,710.54c-1.52-3.21-2.39-6.91-2.49-11.58"/>
  </g>
  <g class="cls-4">
    <path class="cls-2" d="M839.6,745.72l-14.39-13.45c-9.27-8.66-3.33-24.2,9.35-24.48l67.57-1.46c86.12-1.86,139.99,58.74,142.28,165.01,2.29,106.27-48.91,169.59-135.03,171.45l-67.57,1.46c-12.68.27-19.29-15-10.4-24.05l13.8-14.06c6.29-6.41,14.83-10.1,23.81-10.3l37.75-.81c56.49-1.22,89.55-44.18,87.86-122.61-1.69-78.43-36.56-119.47-93.05-118.25l-37.75.81c-8.98.19-17.67-3.13-24.23-9.26Z"/>
    <path class="cls-2" d="M1107.8,815.9c24.12,4.34,36.14,35.08,29.38,72.65-4.55,25.31-18.87,39.06-35.08,36.14-25.7-4.63-36.29-34.29-29.67-71.07,4.84-26.89,17.97-40.86,35.37-37.73Z"/>
    <path class="cls-2" d="M757.33,936.38l.11,4.98c.27,12.44,12.87,20.47,32.46,28.77,16.1,8.37,25.97,15.63,26.31,31.39.52,24.06-22.75,25.39-66.08,15.12-24.6-6.11-39.96-16.15-40.22-28.18-.3-13.69,6.82-25.88,6.24-52.84l-2.37-109.93c-.78-36.09-8.27-41.32-8.59-56.26-.24-11.2,7.72-20.09,38.97-29.48,44.76-13.42,66.15-11.8,66.65,11.01.34,15.76-9.19,23.85-24.92,32.91-18.83,9.12-31.45,18.11-31.2,29.72l.12,5.39"/>
    <path class="cls-2" d="M914.73,818.24c4.5-6.94,7.95-14.71,19.82-14.96,13.41-.72,21.33,7.24,28.84,19.9,9.69,18.18,18.52,44.49,19.08,70.56.35,16.24-4.59,26.61-25.76,27.06l-152.31,2.86c-13.94.3-26.82,1.86-37.4,14.49-6.05,6.54-11.65,10.51-21.98,10.74-20.65.45-26.53-8.84-28-52.84l-.7-32.48c-.42-43.6,5.03-53.98,25.69-54.43,10.32-.22,16.08,3.07,22.42,9.78,10.59,11.74,24.55,12.72,37.46,12.45l84.68-1.4c11.87-.26,21.11-3.02,28.16-11.72Z"/>
    <path class="cls-1" d="M745.87,809.1c4.41-.09,7.98.45,11.12,1.63"/>
    <path class="cls-1" d="M760.46,946.36c-3.21,1.52-6.91,2.39-11.58,2.49"/>
  </g>
  <g class="cls-4">
    <path class="cls-2" d="M3898.43,1005.73l-13.45,14.39c-8.66,9.27-24.2,3.33-24.48-9.35l-1.46-67.57c-1.86-86.12,58.74-139.99,165.01-142.28,106.27-2.29,169.59,48.91,171.45,135.03l1.46,67.57c.27,12.68-15,19.29-24.05,10.4l-14.06-13.8c-6.41-6.29-10.1-14.83-10.3-23.81l-.81-37.75c-1.22-56.49-44.18-89.55-122.61-87.86-78.43,1.69-119.47,36.56-118.25,93.05l.81,37.75c.19,8.98-3.13,17.67-9.26,24.23Z"/>
    <path class="cls-2" d="M3968.61,737.54c4.34-24.12,35.08-36.14,72.65-29.38,25.31,4.55,39.06,18.87,36.14,35.08-4.63,25.7-34.29,36.29-71.07,29.67-26.89-4.84-40.86-17.97-37.73-35.37Z"/>
    <path class="cls-2" d="M4089.09,1088l4.98-.11c12.44-.27,20.47-12.87,28.77-32.46,8.37-16.1,15.63-25.97,31.39-26.31,24.06-.52,25.39,22.75,15.12,66.08-6.11,24.6-16.15,39.96-28.18,40.22-13.69.3-25.88-6.82-52.84-6.24l-109.93,2.37c-36.09.78-41.32,8.27-56.26,8.59-11.2.24-20.09-7.72-29.48-38.97-13.42-44.76-11.8-66.15,11.01-66.65,15.76-.34,23.85,9.19,32.91,24.92,9.12,18.83,18.11,31.45,29.72,31.2l5.39-.12"/>
    <path class="cls-2" d="M3970.95,930.61c-6.94-4.5-14.71-7.95-14.96-19.82-.72-13.41,7.24-21.33,19.9-28.84,18.18-9.69,44.49-18.52,70.56-19.08,16.24-.35,26.61,4.59,27.06,25.76l2.86,152.31c.3,13.94,1.86,26.82,14.49,37.4,6.54,6.05,10.51,11.65,10.74,21.98.45,20.65-8.84,26.53-52.84,28l-32.48.7c-43.6.42-53.98-5.03-54.43-25.69-.22-10.32,3.07-16.08,9.78-22.42,11.74-10.59,12.72-24.55,12.45-37.46l-1.4-84.68c-.26-11.87-3.02-21.11-11.72-28.16Z"/>
    <path class="cls-1" d="M3961.81,1099.46c-.09-4.41.45-7.98,1.63-11.12"/>
    <path class="cls-1" d="M4099.07,1084.88c1.52,3.21,2.39,6.91,2.49,11.58"/>
  </g>
  <g class="cls-4">
    <path class="cls-2" d="M3650.25,798.18l13.45-14.39c8.66-9.27,24.2-3.33,24.48,9.35l1.46,67.57c1.86,86.12-58.74,139.99-165.01,142.28-106.27,2.29-169.59-48.91-171.45-135.03l-1.46-67.57c-.27-12.68,15-19.29,24.05-10.4l14.06,13.8c6.41,6.29,10.1,14.83,10.3,23.81l.81,37.75c1.22,56.49,44.18,89.55,122.61,87.86,78.43-1.69,119.47-36.56,118.25-93.05l-.81-37.75c-.19-8.98,3.13-17.67,9.26-24.23Z"/>
    <path class="cls-2" d="M3580.07,1066.38c-4.34,24.12-35.08,36.14-72.65,29.38-25.31-4.55-39.06-18.87-36.14-35.08,4.63-25.7,34.29-36.29,71.07-29.67,26.89,4.84,40.86,17.97,37.73,35.37Z"/>
    <path class="cls-2" d="M3459.59,715.91l-4.98.11c-12.44.27-20.47,12.87-28.77,32.46-8.37,16.1-15.63,25.97-31.39,26.31-24.06.52-25.39-22.75-15.12-66.08,6.11-24.6,16.15-39.96,28.18-40.22,13.69-.3,25.88,6.82,52.84,6.24l109.93-2.37c36.09-.78,41.32-8.27,56.26-8.59,11.2-.24,20.09,7.72,29.48,38.97,13.42,44.76,11.8,66.15-11.01,66.65-15.76.34-23.85-9.19-32.91-24.92-9.12-18.83-18.11-31.45-29.72-31.2l-5.39.12"/>
    <path class="cls-2" d="M3577.73,873.31c6.94,4.5,14.71,7.95,14.96,19.82.72,13.41-7.24,21.33-19.9,28.84-18.18,9.69-44.49,18.52-70.56,19.08-16.24.35-26.61-4.59-27.06-25.76l-2.86-152.31c-.3-13.94-1.86-26.82-14.49-37.4-6.54-6.05-10.51-11.65-10.74-21.98-.45-20.65,8.84-26.53,52.84-28l32.48-.7c43.6-.42,53.98,5.03,54.43,25.69.22,10.32-3.07,16.08-9.78,22.42-11.74,10.59-12.72,24.55-12.45,37.46l1.4,84.68c.26,11.87,3.02,21.11,11.72,28.16Z"/>
    <path class="cls-1" d="M3586.87,704.45c.09,4.41-.45,7.98-1.63,11.12"/>
    <path class="cls-1" d="M3449.61,719.04c-1.52-3.21-2.39-6.91-2.49-11.58"/>
  </g>
  <g class="cls-4">
    <path class="cls-2" d="M4494.15,745.72l-14.39-13.45c-9.27-8.66-3.33-24.2,9.35-24.48l67.57-1.46c86.12-1.86,139.99,58.74,142.28,165.01,2.29,106.27-48.91,169.59-135.03,171.45l-67.57,1.46c-12.68.27-19.29-15-10.4-24.05l13.8-14.06c6.29-6.41,14.83-10.1,23.81-10.3l37.75-.81c56.49-1.22,89.55-44.18,87.86-122.61-1.69-78.43-36.56-119.47-93.05-118.25l-37.75.81c-8.98.19-17.67-3.13-24.23-9.26Z"/>
    <path class="cls-2" d="M4762.34,815.9c24.12,4.34,36.14,35.08,29.38,72.65-4.55,25.31-18.87,39.06-35.08,36.14-25.7-4.63-36.29-34.29-29.67-71.07,4.84-26.89,17.97-40.86,35.37-37.73Z"/>
    <path class="cls-2" d="M4411.88,936.38l.11,4.98c.27,12.44,12.87,20.47,32.46,28.77,16.1,8.37,25.97,15.63,26.31,31.39.52,24.06-22.75,25.39-66.08,15.12-24.6-6.11-39.96-16.15-40.22-28.18-.3-13.69,6.82-25.88,6.24-52.84l-2.37-109.93c-.78-36.09-8.27-41.32-8.59-56.26-.24-11.2,7.72-20.09,38.97-29.48,44.76-13.42,66.15-11.8,66.65,11.01.34,15.76-9.19,23.85-24.92,32.91-18.83,9.12-31.45,18.11-31.2,29.72l.12,5.39"/>
    <path class="cls-2" d="M4569.27,818.24c4.5-6.94,7.95-14.71,19.82-14.96,13.41-.72,21.33,7.24,28.84,19.9,9.69,18.18,18.52,44.49,19.08,70.56.35,16.24-4.59,26.61-25.76,27.06l-152.31,2.86c-13.94.3-26.82,1.86-37.4,14.49-6.05,6.54-11.65,10.51-21.98,10.74-20.65.45-26.53-8.84-28-52.84l-.7-32.48c-.42-43.6,5.03-53.98,25.69-54.43,10.32-.22,16.08,3.07,22.42,9.78,10.59,11.74,24.55,12.72,37.46,12.45l84.68-1.4c11.87-.26,21.11-3.02,28.16-11.72Z"/>
    <path class="cls-1" d="M4400.42,809.1c4.41-.09,7.98.45,11.12,1.63"/>
    <path class="cls-1" d="M4415,946.36c-3.21,1.52-6.91,2.39-11.58,2.49"/>
  </g>
  <g class="cls-4">
    <path class="cls-2" d="M4878.88,398.71l-13.45,14.39c-8.66,9.27-24.2,3.33-24.48-9.35l-1.46-67.57c-1.86-86.12,58.74-139.99,165.01-142.28,106.27-2.29,169.59,48.91,171.45,135.03l1.46,67.57c.27,12.68-15,19.29-24.05,10.4l-14.06-13.8c-6.41-6.29-10.1-14.83-10.3-23.81l-.81-37.75c-1.22-56.49-44.18-89.55-122.61-87.86-78.43,1.69-119.47,36.56-118.25,93.05l.81,37.75c.19,8.98-3.13,17.67-9.26,24.23Z"/>
    <path class="cls-2" d="M4949.06,130.51c4.34-24.12,35.08-36.14,72.65-29.38,25.31,4.55,39.06,18.87,36.14,35.08-4.63,25.7-34.29,36.29-71.07,29.67-26.89-4.84-40.86-17.97-37.73-35.37Z"/>
    <path class="cls-2" d="M5069.54,480.97l4.98-.11c12.44-.27,20.47-12.87,28.77-32.46,8.37-16.1,15.63-25.97,31.39-26.31,24.06-.52,25.39,22.75,15.12,66.08-6.11,24.6-16.15,39.96-28.18,40.22-13.69.3-25.88-6.82-52.84-6.24l-109.93,2.37c-36.09.78-41.32,8.27-56.26,8.59-11.2.24-20.09-7.72-29.48-38.97-13.42-44.76-11.8-66.15,11.01-66.65,15.76-.34,23.85,9.19,32.91,24.92,9.12,18.83,18.11,31.45,29.72,31.2l5.39-.12"/>
    <path class="cls-2" d="M4951.4,323.58c-6.94-4.5-14.71-7.95-14.96-19.82-.72-13.41,7.24-21.33,19.9-28.84,18.18-9.69,44.49-18.52,70.56-19.08,16.24-.35,26.61,4.59,27.06,25.76l2.86,152.31c.3,13.94,1.86,26.82,14.49,37.4,6.54,6.05,10.51,11.65,10.74,21.98.45,20.65-8.84,26.53-52.84,28l-32.48.7c-43.6.42-53.98-5.03-54.43-25.69-.22-10.32,3.07-16.08,9.78-22.42,11.74-10.59,12.72-24.55,12.45-37.46l-1.4-84.68c-.26-11.87-3.02-21.11-11.72-28.16Z"/>
    <path class="cls-1" d="M4942.26,492.44c-.09-4.41.45-7.98,1.63-11.12"/>
    <path class="cls-1" d="M5079.52,477.85c1.52,3.21,2.39,6.91,2.49,11.58"/>
  </g>
  <g class="cls-4">
    <path class="cls-2" d="M4947.94,1005.73l-13.45,14.39c-8.66,9.27-24.2,3.33-24.48-9.35l-1.46-67.57c-1.86-86.12,58.74-139.99,165.01-142.28,106.27-2.29,169.59,48.91,171.45,135.03l1.46,67.57c.27,12.68-15,19.29-24.05,10.4l-14.06-13.8c-6.41-6.29-10.1-14.83-10.3-23.81l-.81-37.75c-1.22-56.49-44.18-89.55-122.61-87.86-78.43,1.69-119.47,36.56-118.25,93.05l.81,37.75c.19,8.98-3.13,17.67-9.26,24.23Z"/>
    <path class="cls-2" d="M5018.13,737.54c4.34-24.12,35.08-36.14,72.65-29.38,25.31,4.55,39.06,18.87,36.14,35.08-4.63,25.7-34.29,36.29-71.07,29.67-26.89-4.84-40.86-17.97-37.73-35.37Z"/>
    <path class="cls-2" d="M5138.6,1088l4.98-.11c12.44-.27,20.47-12.87,28.77-32.46,8.37-16.1,15.63-25.97,31.39-26.31,24.06-.52,25.39,22.75,15.12,66.08-6.11,24.6-16.15,39.96-28.18,40.22-13.69.3-25.88-6.82-52.84-6.24l-109.93,2.37c-36.09.78-41.32,8.27-56.26,8.59-11.2.24-20.09-7.72-29.48-38.97-13.42-44.76-11.8-66.15,11.01-66.65,15.76-.34,23.85,9.19,32.91,24.92,9.12,18.83,18.11,31.45,29.72,31.2l5.39-.12"/>
    <path class="cls-2" d="M5020.46,930.61c-6.94-4.5-14.71-7.95-14.96-19.82-.72-13.41,7.24-21.33,19.9-28.84,18.18-9.69,44.49-18.52,70.56-19.08,16.24-.35,26.61,4.59,27.06,25.76l2.86,152.31c.3,13.94,1.86,26.82,14.49,37.4,6.54,6.05,10.51,11.65,10.74,21.98.45,20.65-8.84,26.53-52.84,28l-32.48.7c-43.6.42-53.98-5.03-54.43-25.69-.22-10.32,3.07-16.08,9.78-22.42,11.74-10.59,12.72-24.55,12.45-37.46l-1.4-84.68c-.26-11.87-3.02-21.11-11.72-28.16Z"/>
    <path class="cls-1" d="M5011.32,1099.46c-.09-4.41.45-7.98,1.63-11.12"/>
    <path class="cls-1" d="M5148.58,1084.88c1.52,3.21,2.39,6.91,2.49,11.58"/>
  </g>
  <g class="cls-4">
    <path class="cls-2" d="M5121.72,1426.23l13.45-14.39c8.66-9.27,24.2-3.33,24.48,9.35l1.46,67.57c1.86,86.12-58.74,139.99-165.01,142.28-106.27,2.29-169.59-48.91-171.45-135.03l-1.46-67.57c-.27-12.68,15-19.29,24.05-10.4l14.06,13.8c6.41,6.29,10.1,14.83,10.3,23.81l.81,37.75c1.22,56.49,44.18,89.55,122.61,87.86,78.43-1.69,119.47-36.56,118.25-93.05l-.81-37.75c-.19-8.98,3.13-17.67,9.26-24.23Z"/>
    <path class="cls-2" d="M5051.54,1694.42c-4.34,24.12-35.08,36.14-72.65,29.38-25.31-4.55-39.06-18.87-36.14-35.08,4.63-25.7,34.29-36.29,71.07-29.67,26.89,4.84,40.86,17.97,37.73,35.37Z"/>
    <path class="cls-2" d="M4931.06,1343.96l-4.98.11c-12.44.27-20.47,12.87-28.77,32.46-8.37,16.1-15.63,25.97-31.39,26.31-24.06.52-25.39-22.75-15.12-66.08,6.11-24.6,16.15-39.96,28.18-40.22,13.69-.3,25.88,6.82,52.84,6.24l109.93-2.37c36.09-.78,41.32-8.27,56.26-8.59,11.2-.24,20.09,7.72,29.48,38.97,13.42,44.76,11.8,66.15-11.01,66.65-15.76.34-23.85-9.19-32.91-24.92-9.12-18.83-18.11-31.45-29.72-31.2l-5.39.12"/>
    <path class="cls-2" d="M5049.21,1501.35c6.94,4.5,14.71,7.95,14.96,19.82.72,13.41-7.24,21.33-19.9,28.84-18.18,9.69-44.49,18.52-70.56,19.08-16.24.35-26.61-4.59-27.06-25.76l-2.86-152.31c-.3-13.94-1.86-26.82-14.49-37.4-6.54-6.05-10.51-11.65-10.74-21.98-.45-20.65,8.84-26.53,52.84-28l32.48-.7c43.6-.42,53.98,5.03,54.43,25.69.22,10.32-3.07,16.08-9.78,22.42-11.74,10.59-12.72,24.55-12.45,37.46l1.4,84.68c.26,11.87,3.02,21.11,11.72,28.16Z"/>
    <path class="cls-1" d="M5058.34,1332.5c.09,4.41-.45,7.98-1.63,11.12"/>
    <path class="cls-1" d="M4921.09,1347.08c-1.52-3.21-2.39-6.91-2.49-11.58"/>
  </g>
  <g class="cls-4">
    <path class="cls-2" d="M4381.93,1591.26l-13.45,14.39c-8.66,9.27-24.2,3.33-24.48-9.35l-1.46-67.57c-1.86-86.12,58.74-139.99,165.01-142.28,106.27-2.29,169.59,48.91,171.45,135.03l1.46,67.57c.27,12.68-15,19.29-24.05,10.4l-14.06-13.8c-6.41-6.29-10.1-14.83-10.3-23.81l-.81-37.75c-1.22-56.49-44.18-89.55-122.61-87.86-78.43,1.69-119.47,36.56-118.25,93.05l.81,37.75c.19,8.98-3.13,17.67-9.26,24.23Z"/>
    <path class="cls-2" d="M4452.11,1323.06c4.34-24.12,35.08-36.14,72.65-29.38,25.31,4.55,39.06,18.87,36.14,35.08-4.63,25.7-34.29,36.29-71.07,29.67-26.89-4.84-40.86-17.97-37.73-35.37Z"/>
    <path class="cls-2" d="M4572.58,1673.53l4.98-.11c12.44-.27,20.47-12.87,28.77-32.46,8.37-16.1,15.63-25.97,31.39-26.31,24.06-.52,25.39,22.75,15.12,66.08-6.11,24.6-16.15,39.96-28.18,40.22-13.69.3-25.88-6.82-52.84-6.24l-109.93,2.37c-36.09.78-41.32,8.27-56.26,8.59-11.2.24-20.09-7.72-29.48-38.97-13.42-44.76-11.8-66.15,11.01-66.65,15.76-.34,23.85,9.19,32.91,24.92,9.12,18.83,18.11,31.45,29.72,31.2l5.39-.12"/>
    <path class="cls-2" d="M4454.44,1516.13c-6.94-4.5-14.71-7.95-14.96-19.82-.72-13.41,7.24-21.33,19.9-28.84,18.18-9.69,44.49-18.52,70.56-19.08,16.24-.35,26.61,4.59,27.06,25.76l2.86,152.31c.3,13.94,1.86,26.82,14.49,37.4,6.54,6.05,10.51,11.65,10.74,21.98.45,20.65-8.84,26.53-52.84,28l-32.48.7c-43.6.42-53.98-5.03-54.43-25.69-.22-10.32,3.07-16.08,9.78-22.42,11.74-10.59,12.72-24.55,12.45-37.46l-1.4-84.68c-.26-11.87-3.02-21.11-11.72-28.16Z"/>
    <path class="cls-1" d="M4445.3,1684.99c-.09-4.41.45-7.98,1.63-11.12"/>
    <path class="cls-1" d="M4582.56,1670.4c1.52,3.21,2.39,6.91,2.49,11.58"/>
  </g>
  <g class="cls-4">
    <path class="cls-2" d="M4041.3,1703.25l14.39,13.45c9.27,8.66,3.33,24.2-9.35,24.48l-67.57,1.46c-86.12,1.86-139.99-58.74-142.28-165.01-2.29-106.27,48.91-169.59,135.03-171.45l67.57-1.46c12.68-.27,19.29,15,10.4,24.05l-13.8,14.06c-6.29,6.41-14.83,10.1-23.81,10.3l-37.75.81c-56.49,1.22-89.55,44.18-87.86,122.61,1.69,78.43,36.56,119.47,93.05,118.25l37.75-.81c8.98-.19,17.67,3.13,24.23,9.26Z"/>
    <path class="cls-2" d="M3773.1,1633.07c-24.12-4.34-36.14-35.08-29.38-72.65,4.55-25.31,18.87-39.06,35.08-36.14,25.7,4.63,36.29,34.29,29.67,71.07-4.84,26.89-17.97,40.86-35.37,37.73Z"/>
    <path class="cls-2" d="M4123.57,1512.59l-.11-4.98c-.27-12.44-12.87-20.47-32.46-28.77-16.1-8.37-25.97-15.63-26.31-31.39-.52-24.06,22.75-25.39,66.08-15.12,24.6,6.11,39.96,16.15,40.22,28.18.3,13.69-6.82,25.88-6.24,52.84l2.37,109.93c.78,36.09,8.27,41.32,8.59,56.26.24,11.2-7.72,20.09-38.97,29.48-44.76,13.42-66.15,11.8-66.65-11.01-.34-15.76,9.19-23.85,24.92-32.91,18.83-9.12,31.45-18.11,31.2-29.72l-.12-5.39"/>
    <path class="cls-2" d="M3966.17,1630.73c-4.5,6.94-7.95,14.71-19.82,14.96-13.41.72-21.33-7.24-28.84-19.9-9.69-18.18-18.52-44.49-19.08-70.56-.35-16.24,4.59-26.61,25.76-27.06l152.31-2.86c13.94-.3,26.82-1.86,37.4-14.49,6.05-6.54,11.65-10.51,21.98-10.74,20.65-.45,26.53,8.84,28,52.84l.7,32.48c.42,43.6-5.03,53.98-25.69,54.43-10.32.22-16.08-3.07-22.42-9.78-10.59-11.74-24.55-12.72-37.46-12.45l-84.68,1.4c-11.87.26-21.11,3.02-28.16,11.72Z"/>
    <path class="cls-1" d="M4135.03,1639.87c-4.41.09-7.98-.45-11.12-1.63"/>
    <path class="cls-1" d="M4120.44,1502.61c3.21-1.52,6.91-2.39,11.58-2.49"/>
  </g>
  <g class="cls-4">
    <path class="cls-2" d="M3597.72,1426.23l13.45-14.39c8.66-9.27,24.2-3.33,24.48,9.35l1.46,67.57c1.86,86.12-58.74,139.99-165.01,142.28-106.27,2.29-169.59-48.91-171.45-135.03l-1.46-67.57c-.27-12.68,15-19.29,24.05-10.4l14.06,13.8c6.41,6.29,10.1,14.83,10.3,23.81l.81,37.75c1.22,56.49,44.18,89.55,122.61,87.86,78.43-1.69,119.47-36.56,118.25-93.05l-.81-37.75c-.19-8.98,3.13-17.67,9.26-24.23Z"/>
    <path class="cls-2" d="M3527.54,1694.42c-4.34,24.12-35.08,36.14-72.65,29.38-25.31-4.55-39.06-18.87-36.14-35.08,4.63-25.7,34.29-36.29,71.07-29.67,26.89,4.84,40.86,17.97,37.73,35.37Z"/>
    <path class="cls-2" d="M3407.06,1343.96l-4.98.11c-12.44.27-20.47,12.87-28.77,32.46-8.37,16.1-15.63,25.97-31.39,26.31-24.06.52-25.39-22.75-15.12-66.08,6.11-24.6,16.15-39.96,28.18-40.22,13.69-.3,25.88,6.82,52.84,6.24l109.93-2.37c36.09-.78,41.32-8.27,56.26-8.59,11.2-.24,20.09,7.72,29.48,38.97,13.42,44.76,11.8,66.15-11.01,66.65-15.76.34-23.85-9.19-32.91-24.92-9.12-18.83-18.11-31.45-29.72-31.2l-5.39.12"/>
    <path class="cls-2" d="M3525.2,1501.35c6.94,4.5,14.71,7.95,14.96,19.82.72,13.41-7.24,21.33-19.9,28.84-18.18,9.69-44.49,18.52-70.56,19.08-16.24.35-26.61-4.59-27.06-25.76l-2.86-152.31c-.3-13.94-1.86-26.82-14.49-37.4-6.54-6.05-10.51-11.65-10.74-21.98-.45-20.65,8.84-26.53,52.84-28l32.48-.7c43.6-.42,53.98,5.03,54.43,25.69.22,10.32-3.07,16.08-9.78,22.42-11.74,10.59-12.72,24.55-12.45,37.46l1.4,84.68c.26,11.87,3.02,21.11,11.72,28.16Z"/>
    <path class="cls-1" d="M3534.34,1332.5c.09,4.41-.45,7.98-1.63,11.12"/>
    <path class="cls-1" d="M3397.08,1347.08c-1.52-3.21-2.39-6.91-2.49-11.58"/>
  </g>
  <g class="cls-4">
    <path class="cls-2" d="M2857.92,1591.26l-13.45,14.39c-8.66,9.27-24.2,3.33-24.48-9.35l-1.46-67.57c-1.86-86.12,58.74-139.99,165.01-142.28,106.27-2.29,169.59,48.91,171.45,135.03l1.46,67.57c.27,12.68-15,19.29-24.05,10.4l-14.06-13.8c-6.41-6.29-10.1-14.83-10.3-23.81l-.81-37.75c-1.22-56.49-44.18-89.55-122.61-87.86-78.43,1.69-119.47,36.56-118.25,93.05l.81,37.75c.19,8.98-3.13,17.67-9.26,24.23Z"/>
    <path class="cls-2" d="M2928.1,1323.06c4.34-24.12,35.08-36.14,72.65-29.38,25.31,4.55,39.06,18.87,36.14,35.08-4.63,25.7-34.29,36.29-71.07,29.67-26.89-4.84-40.86-17.97-37.73-35.37Z"/>
    <path class="cls-2" d="M3048.58,1673.53l4.98-.11c12.44-.27,20.47-12.87,28.77-32.46,8.37-16.1,15.63-25.97,31.39-26.31,24.06-.52,25.39,22.75,15.12,66.08-6.11,24.6-16.15,39.96-28.18,40.22-13.69.3-25.88-6.82-52.84-6.24l-109.93,2.37c-36.09.78-41.32,8.27-56.26,8.59-11.2.24-20.09-7.72-29.48-38.97-13.42-44.76-11.8-66.15,11.01-66.65,15.76-.34,23.85,9.19,32.91,24.92,9.12,18.83,18.11,31.45,29.72,31.2l5.39-.12"/>
    <path class="cls-2" d="M2930.44,1516.13c-6.94-4.5-14.71-7.95-14.96-19.82-.72-13.41,7.24-21.33,19.9-28.84,18.18-9.69,44.49-18.52,70.56-19.08,16.24-.35,26.61,4.59,27.06,25.76l2.86,152.31c.3,13.94,1.86,26.82,14.49,37.4,6.54,6.05,10.51,11.65,10.74,21.98.45,20.65-8.84,26.53-52.84,28l-32.48.7c-43.6.42-53.98-5.03-54.43-25.69-.22-10.32,3.07-16.08,9.78-22.42,11.74-10.59,12.72-24.55,12.45-37.46l-1.4-84.68c-.26-11.87-3.02-21.11-11.72-28.16Z"/>
    <path class="cls-1" d="M2921.3,1684.99c-.09-4.41.45-7.98,1.63-11.12"/>
    <path class="cls-1" d="M3058.56,1670.4c1.52,3.21,2.39,6.91,2.49,11.58"/>
  </g>
  <g class="cls-4">
    <path class="cls-2" d="M2517.29,1686.24l14.39,13.45c9.27,8.66,3.33,24.2-9.35,24.48l-67.57,1.46c-86.12,1.86-139.99-58.74-142.28-165.01-2.29-106.27,48.91-169.59,135.03-171.45l67.57-1.46c12.68-.27,19.29,15,10.4,24.05l-13.8,14.06c-6.29,6.41-14.83,10.1-23.81,10.3l-37.75.81c-56.49,1.22-89.55,44.18-87.86,122.61,1.69,78.43,36.56,119.47,93.05,118.25l37.75-.81c8.98-.19,17.67,3.13,24.23,9.26Z"/>
    <path class="cls-2" d="M2249.1,1616.06c-24.12-4.34-36.14-35.08-29.38-72.65,4.55-25.31,18.87-39.06,35.08-36.14,25.7,4.63,36.29,34.29,29.67,71.07-4.84,26.89-17.97,40.86-35.37,37.73Z"/>
    <path class="cls-2" d="M2599.56,1495.58l-.11-4.98c-.27-12.44-12.87-20.47-32.46-28.77-16.1-8.37-25.97-15.63-26.31-31.39-.52-24.06,22.75-25.39,66.08-15.12,24.6,6.11,39.96,16.15,40.22,28.18.3,13.69-6.82,25.88-6.24,52.84l2.37,109.93c.78,36.09,8.27,41.32,8.59,56.26.24,11.2-7.72,20.09-38.97,29.48-44.76,13.42-66.15,11.8-66.65-11.01-.34-15.76,9.19-23.85,24.92-32.91,18.83-9.12,31.45-18.11,31.2-29.72l-.12-5.39"/>
    <path class="cls-2" d="M2442.17,1613.72c-4.5,6.94-7.95,14.71-19.82,14.96-13.41.72-21.33-7.24-28.84-19.9-9.69-18.18-18.52-44.49-19.08-70.56-.35-16.24,4.59-26.61,25.76-27.06l152.31-2.86c13.94-.3,26.82-1.86,37.4-14.49,6.05-6.54,11.65-10.51,21.98-10.74,20.65-.45,26.53,8.84,28,52.84l.7,32.48c.42,43.6-5.03,53.98-25.69,54.43-10.32.22-16.08-3.07-22.42-9.78-10.59-11.74-24.55-12.72-37.46-12.45l-84.68,1.4c-11.87.26-21.11,3.02-28.16,11.72Z"/>
    <path class="cls-1" d="M2611.03,1622.86c-4.41.09-7.98-.45-11.12-1.63"/>
    <path class="cls-1" d="M2596.44,1485.6c3.21-1.52,6.91-2.39,11.58-2.49"/>
  </g>
  <g class="cls-4">
    <path class="cls-2" d="M2072.43,1392.21l13.45-14.39c8.66-9.27,24.2-3.33,24.48,9.35l1.46,67.57c1.86,86.12-58.74,139.99-165.01,142.28-106.27,2.29-169.59-48.91-171.45-135.03l-1.46-67.57c-.27-12.68,15-19.29,24.05-10.4l14.06,13.8c6.41,6.29,10.1,14.83,10.3,23.81l.81,37.75c1.22,56.49,44.18,89.55,122.61,87.86,78.43-1.69,119.47-36.56,118.25-93.05l-.81-37.75c-.19-8.98,3.13-17.67,9.26-24.23Z"/>
    <path class="cls-2" d="M2002.25,1660.41c-4.34,24.12-35.08,36.14-72.65,29.38-25.31-4.55-39.06-18.87-36.14-35.08,4.63-25.7,34.29-36.29,71.07-29.67,26.89,4.84,40.86,17.97,37.73,35.37Z"/>
    <path class="cls-2" d="M1881.77,1309.94l-4.98.11c-12.44.27-20.47,12.87-28.77,32.46-8.37,16.1-15.63,25.97-31.39,26.31-24.06.52-25.39-22.75-15.12-66.08,6.11-24.6,16.15-39.96,28.18-40.22,13.69-.3,25.88,6.82,52.84,6.24l109.93-2.37c36.09-.78,41.32-8.27,56.26-8.59,11.2-.24,20.09,7.72,29.48,38.97,13.42,44.76,11.8,66.15-11.01,66.65-15.76.34-23.85-9.19-32.91-24.92-9.12-18.83-18.11-31.45-29.72-31.2l-5.39.12"/>
    <path class="cls-2" d="M1999.91,1467.34c6.94,4.5,14.71,7.95,14.96,19.82.72,13.41-7.24,21.33-19.9,28.84-18.18,9.69-44.49,18.52-70.56,19.08-16.24.35-26.61-4.59-27.06-25.76l-2.86-152.31c-.3-13.94-1.86-26.82-14.49-37.4-6.54-6.05-10.51-11.65-10.74-21.98-.45-20.65,8.84-26.53,52.84-28l32.48-.7c43.6-.42,53.98,5.03,54.43,25.69.22,10.32-3.07,16.08-9.78,22.42-11.74,10.59-12.72,24.55-12.45,37.46l1.4,84.68c.26,11.87,3.02,21.11,11.72,28.16Z"/>
    <path class="cls-1" d="M2009.05,1298.48c.09,4.41-.45,7.98-1.63,11.12"/>
    <path class="cls-1" d="M1871.79,1313.07c-1.52-3.21-2.39-6.91-2.49-11.58"/>
  </g>
  <g class="cls-4">
    <path class="cls-2" d="M1332.63,1591.26l-13.45,14.39c-8.66,9.27-24.2,3.33-24.48-9.35l-1.46-67.57c-1.86-86.12,58.74-139.99,165.01-142.28,106.27-2.29,169.59,48.91,171.45,135.03l1.46,67.57c.27,12.68-15,19.29-24.05,10.4l-14.06-13.8c-6.41-6.29-10.1-14.83-10.3-23.81l-.81-37.75c-1.22-56.49-44.18-89.55-122.61-87.86-78.43,1.69-119.47,36.56-118.25,93.05l.81,37.75c.19,8.98-3.13,17.67-9.26,24.23Z"/>
    <path class="cls-2" d="M1402.82,1323.06c4.34-24.12,35.08-36.14,72.65-29.38,25.31,4.55,39.06,18.87,36.14,35.08-4.63,25.7-34.29,36.29-71.07,29.67-26.89-4.84-40.86-17.97-37.73-35.37Z"/>
    <path class="cls-2" d="M1523.29,1673.53l4.98-.11c12.44-.27,20.47-12.87,28.77-32.46,8.37-16.1,15.63-25.97,31.39-26.31,24.06-.52,25.39,22.75,15.12,66.08-6.11,24.6-16.15,39.96-28.18,40.22-13.69.3-25.88-6.82-52.84-6.24l-109.93,2.37c-36.09.78-41.32,8.27-56.26,8.59-11.2.24-20.09-7.72-29.48-38.97-13.42-44.76-11.8-66.15,11.01-66.65,15.76-.34,23.85,9.19,32.91,24.92,9.12,18.83,18.11,31.45,29.72,31.2l5.39-.12"/>
    <path class="cls-2" d="M1405.15,1516.13c-6.94-4.5-14.71-7.95-14.96-19.82-.72-13.41,7.24-21.33,19.9-28.84,18.18-9.69,44.49-18.52,70.56-19.08,16.24-.35,26.61,4.59,27.06,25.76l2.86,152.31c.3,13.94,1.86,26.82,14.49,37.4,6.54,6.05,10.51,11.65,10.74,21.98.45,20.65-8.84,26.53-52.84,28l-32.48.7c-43.6.42-53.98-5.03-54.43-25.69-.22-10.32,3.07-16.08,9.78-22.42,11.74-10.59,12.72-24.55,12.45-37.46l-1.4-84.68c-.26-11.87-3.02-21.11-11.72-28.16Z"/>
    <path class="cls-1" d="M1396.01,1684.99c-.09-4.41.45-7.98,1.63-11.12"/>
    <path class="cls-1" d="M1533.27,1670.4c1.52,3.21,2.39,6.91,2.49,11.58"/>
  </g>
  <g class="cls-4">
    <path class="cls-2" d="M992.01,1601.2l14.39,13.45c9.27,8.66,3.33,24.2-9.35,24.48l-67.57,1.46c-86.12,1.86-139.99-58.74-142.28-165.01-2.29-106.27,48.91-169.59,135.03-171.45l67.57-1.46c12.68-.27,19.29,15,10.4,24.05l-13.8,14.06c-6.29,6.41-14.83,10.1-23.81,10.3l-37.75.81c-56.49,1.22-89.55,44.18-87.86,122.61,1.69,78.43,36.56,119.47,93.05,118.25l37.75-.81c8.98-.19,17.67,3.13,24.23,9.26Z"/>
    <path class="cls-2" d="M723.81,1531.02c-24.12-4.34-36.14-35.08-29.38-72.65,4.55-25.31,18.87-39.06,35.08-36.14,25.7,4.63,36.29,34.29,29.67,71.07-4.84,26.89-17.97,40.86-35.37,37.73Z"/>
    <path class="cls-2" d="M1074.28,1410.54l-.11-4.98c-.27-12.44-12.87-20.47-32.46-28.77-16.1-8.37-25.97-15.63-26.31-31.39-.52-24.06,22.75-25.39,66.08-15.12,24.6,6.11,39.96,16.15,40.22,28.18.3,13.69-6.82,25.88-6.24,52.84l2.37,109.93c.78,36.09,8.27,41.32,8.59,56.26.24,11.2-7.72,20.09-38.97,29.48-44.76,13.42-66.15,11.8-66.65-11.01-.34-15.76,9.19-23.85,24.92-32.91,18.83-9.12,31.45-18.11,31.2-29.72l-.12-5.39"/>
    <path class="cls-2" d="M916.88,1528.68c-4.5,6.94-7.95,14.71-19.82,14.96-13.41.72-21.33-7.24-28.84-19.9-9.69-18.18-18.52-44.49-19.08-70.56-.35-16.24,4.59-26.61,25.76-27.06l152.31-2.86c13.94-.3,26.82-1.86,37.4-14.49,6.05-6.54,11.65-10.51,21.98-10.74,20.65-.45,26.53,8.84,28,52.84l.7,32.48c.42,43.6-5.03,53.98-25.69,54.43-10.32.22-16.08-3.07-22.42-9.78-10.59-11.74-24.55-12.72-37.46-12.45l-84.68,1.4c-11.87.26-21.11,3.02-28.16,11.72Z"/>
    <path class="cls-1" d="M1085.74,1537.82c-4.41.09-7.98-.45-11.12-1.63"/>
    <path class="cls-1" d="M1071.15,1400.57c3.21-1.52,6.91-2.39,11.58-2.49"/>
  </g>
  <g class="cls-4">
    <path class="cls-2" d="M519.99,1426.23l13.45-14.39c8.66-9.27,24.2-3.33,24.48,9.35l1.46,67.57c1.86,86.12-58.74,139.99-165.01,142.28-106.27,2.29-169.59-48.91-171.45-135.03l-1.46-67.57c-.27-12.68,15-19.29,24.05-10.4l14.06,13.8c6.41,6.29,10.1,14.83,10.3,23.81l.81,37.75c1.22,56.49,44.18,89.55,122.61,87.86,78.43-1.69,119.47-36.56,118.25-93.05l-.81-37.75c-.19-8.98,3.13-17.67,9.26-24.23Z"/>
    <path class="cls-2" d="M449.81,1694.42c-4.34,24.12-35.08,36.14-72.65,29.38-25.31-4.55-39.06-18.87-36.14-35.08,4.63-25.7,34.29-36.29,71.07-29.67,26.89,4.84,40.86,17.97,37.73,35.37Z"/>
    <path class="cls-2" d="M329.33,1343.96l-4.98.11c-12.44.27-20.47,12.87-28.77,32.46-8.37,16.1-15.63,25.97-31.39,26.31-24.06.52-25.39-22.75-15.12-66.08,6.11-24.6,16.15-39.96,28.18-40.22,13.69-.3,25.88,6.82,52.84,6.24l109.93-2.37c36.09-.78,41.32-8.27,56.26-8.59,11.2-.24,20.09,7.72,29.48,38.97,13.42,44.76,11.8,66.15-11.01,66.65-15.76.34-23.85-9.19-32.91-24.92-9.12-18.83-18.11-31.45-29.72-31.2l-5.39.12"/>
    <path class="cls-2" d="M447.47,1501.35c6.94,4.5,14.71,7.95,14.96,19.82.72,13.41-7.24,21.33-19.9,28.84-18.18,9.69-44.49,18.52-70.56,19.08-16.24.35-26.61-4.59-27.06-25.76l-2.86-152.31c-.3-13.94-1.86-26.82-14.49-37.4-6.54-6.05-10.51-11.65-10.74-21.98-.45-20.65,8.84-26.53,52.84-28l32.48-.7c43.6-.42,53.98,5.03,54.43,25.69.22,10.32-3.07,16.08-9.78,22.42-11.74,10.59-12.72,24.55-12.45,37.46l1.4,84.68c.26,11.87,3.02,21.11,11.72,28.16Z"/>
    <path class="cls-1" d="M456.61,1332.5c.09,4.41-.45,7.98-1.63,11.12"/>
    <path class="cls-1" d="M319.35,1347.08c-1.52-3.21-2.39-6.91-2.49-11.58"/>
  </g>
  <g class="cls-4">
    <path class="cls-2" d="M2814.96,2197.66l-13.45,14.39c-8.66,9.27-24.2,3.33-24.48-9.35l-1.46-67.57c-1.86-86.12,58.74-139.99,165.01-142.28,106.27-2.29,169.59,48.91,171.45,135.03l1.46,67.57c.27,12.68-15,19.29-24.05,10.4l-14.06-13.8c-6.41-6.29-10.1-14.83-10.3-23.81l-.81-37.75c-1.22-56.49-44.18-89.55-122.61-87.86-78.43,1.69-119.47,36.56-118.25,93.05l.81,37.75c.19,8.98-3.13,17.67-9.26,24.23Z"/>
    <path class="cls-2" d="M2885.14,1929.46c4.34-24.12,35.08-36.14,72.65-29.38,25.31,4.55,39.06,18.87,36.14,35.08-4.63,25.7-34.29,36.29-71.07,29.67-26.89-4.84-40.86-17.97-37.73-35.37Z"/>
    <path class="cls-2" d="M3005.62,2279.92l4.98-.11c12.44-.27,20.47-12.87,28.77-32.46,8.37-16.1,15.63-25.97,31.39-26.31,24.06-.52,25.39,22.75,15.12,66.08-6.11,24.6-16.15,39.96-28.18,40.22-13.69.3-25.88-6.82-52.84-6.24l-109.93,2.37c-36.09.78-41.32,8.27-56.26,8.59-11.2.24-20.09-7.72-29.48-38.97-13.42-44.76-11.8-66.15,11.01-66.65,15.76-.34,23.85,9.19,32.91,24.92,9.12,18.83,18.11,31.45,29.72,31.2l5.39-.12"/>
    <path class="cls-2" d="M2887.48,2122.53c-6.94-4.5-14.71-7.95-14.96-19.82-.72-13.41,7.24-21.33,19.9-28.84,18.18-9.69,44.49-18.52,70.56-19.08,16.24-.35,26.61,4.59,27.06,25.76l2.86,152.31c.3,13.94,1.86,26.82,14.49,37.4,6.54,6.05,10.51,11.65,10.74,21.98.45,20.65-8.84,26.53-52.84,28l-32.48.7c-43.6.42-53.98-5.03-54.43-25.69-.22-10.32,3.07-16.08,9.78-22.42,11.74-10.59,12.72-24.55,12.45-37.46l-1.4-84.68c-.26-11.87-3.02-21.11-11.72-28.16Z"/>
    <path class="cls-1" d="M2878.34,2291.39c-.09-4.41.45-7.98,1.63-11.12"/>
    <path class="cls-1" d="M3015.6,2276.8c1.52,3.21,2.39,6.91,2.49,11.58"/>
  </g>
  <g class="cls-4">
    <path class="cls-2" d="M507.78,2032.62l13.45-14.39c8.66-9.27,24.2-3.33,24.48,9.35l1.46,67.57c1.86,86.12-58.74,139.99-165.01,142.28-106.27,2.29-169.59-48.91-171.45-135.03l-1.46-67.57c-.27-12.68,15-19.29,24.05-10.4l14.06,13.8c6.41,6.29,10.1,14.83,10.3,23.81l.81,37.75c1.22,56.49,44.18,89.55,122.61,87.86,78.43-1.69,119.47-36.56,118.25-93.05l-.81-37.75c-.19-8.98,3.13-17.67,9.26-24.23Z"/>
    <path class="cls-2" d="M437.6,2300.82c-4.34,24.12-35.08,36.14-72.65,29.38-25.31-4.55-39.06-18.87-36.14-35.08,4.63-25.7,34.29-36.29,71.07-29.67,26.89,4.84,40.86,17.97,37.73,35.37Z"/>
    <path class="cls-2" d="M317.12,1950.36l-4.98.11c-12.44.27-20.47,12.87-28.77,32.46-8.37,16.1-15.63,25.97-31.39,26.31-24.06.52-25.39-22.75-15.12-66.08,6.11-24.6,16.15-39.96,28.18-40.22,13.69-.3,25.88,6.82,52.84,6.24l109.93-2.37c36.09-.78,41.32-8.27,56.26-8.59,11.2-.24,20.09,7.72,29.48,38.97,13.42,44.76,11.8,66.15-11.01,66.65-15.76.34-23.85-9.19-32.91-24.92-9.12-18.83-18.11-31.45-29.72-31.2l-5.39.12"/>
    <path class="cls-2" d="M435.27,2107.75c6.94,4.5,14.71,7.95,14.96,19.82.72,13.41-7.24,21.33-19.9,28.84-18.18,9.69-44.49,18.52-70.56,19.08-16.24.35-26.61-4.59-27.06-25.76l-2.86-152.31c-.3-13.94-1.86-26.82-14.49-37.4-6.54-6.05-10.51-11.65-10.74-21.98-.45-20.65,8.84-26.53,52.84-28l32.48-.7c43.6-.42,53.98,5.03,54.43,25.69.22,10.32-3.07,16.08-9.78,22.42-11.74,10.59-12.72,24.55-12.45,37.46l1.4,84.68c.26,11.87,3.02,21.11,11.72,28.16Z"/>
    <path class="cls-1" d="M444.4,1938.89c.09,4.41-.45,7.98-1.63,11.12"/>
    <path class="cls-1" d="M307.15,1953.48c-1.52-3.21-2.39-6.91-2.49-11.58"/>
  </g>
  <g class="cls-4">
    <path class="cls-2" d="M2003.81,2179.74l14.39,13.45c9.27,8.66,3.33,24.2-9.35,24.48l-67.57,1.46c-86.12,1.86-139.99-58.74-142.28-165.01-2.29-106.27,48.91-169.59,135.03-171.45l67.57-1.46c12.68-.27,19.29,15,10.4,24.05l-13.8,14.06c-6.29,6.41-14.83,10.1-23.81,10.3l-37.75.81c-56.49,1.22-89.55,44.18-87.86,122.61,1.69,78.43,36.56,119.47,93.05,118.25l37.75-.81c8.98-.19,17.67,3.13,24.23,9.26Z"/>
    <path class="cls-2" d="M1735.61,2109.55c-24.12-4.34-36.14-35.08-29.38-72.65,4.55-25.31,18.87-39.06,35.08-36.14,25.7,4.63,36.29,34.29,29.67,71.07-4.84,26.89-17.97,40.86-35.37,37.73Z"/>
    <path class="cls-2" d="M2086.07,1989.08l-.11-4.98c-.27-12.44-12.87-20.47-32.46-28.77-16.1-8.37-25.97-15.63-26.31-31.39-.52-24.06,22.75-25.39,66.08-15.12,24.6,6.11,39.96,16.15,40.22,28.18.3,13.69-6.82,25.88-6.24,52.84l2.37,109.93c.78,36.09,8.27,41.32,8.59,56.26.24,11.2-7.72,20.09-38.97,29.48-44.76,13.42-66.15,11.8-66.65-11.01-.34-15.76,9.19-23.85,24.92-32.91,18.83-9.12,31.45-18.11,31.2-29.72l-.12-5.39"/>
    <path class="cls-2" d="M1928.68,2107.22c-4.5,6.94-7.95,14.71-19.82,14.96-13.41.72-21.33-7.24-28.84-19.9-9.69-18.18-18.52-44.49-19.08-70.56-.35-16.24,4.59-26.61,25.76-27.06l152.31-2.86c13.94-.3,26.82-1.86,37.4-14.49,6.05-6.54,11.65-10.51,21.98-10.74,20.65-.45,26.53,8.84,28,52.84l.7,32.48c.42,43.6-5.03,53.98-25.69,54.43-10.32.22-16.08-3.07-22.42-9.78-10.59-11.74-24.55-12.72-37.46-12.45l-84.68,1.4c-11.87.26-21.11,3.02-28.16,11.72Z"/>
    <path class="cls-1" d="M2097.54,2116.36c-4.41.09-7.98-.45-11.12-1.63"/>
    <path class="cls-1" d="M2082.95,1979.1c3.21-1.52,6.91-2.39,11.58-2.49"/>
  </g>
  <g class="cls-4">
    <path class="cls-2" d="M1282.64,2197.66l-13.45,14.39c-8.66,9.27-24.2,3.33-24.48-9.35l-1.46-67.57c-1.86-86.12,58.74-139.99,165.01-142.28,106.27-2.29,169.59,48.91,171.45,135.03l1.46,67.57c.27,12.68-15,19.29-24.05,10.4l-14.06-13.8c-6.41-6.29-10.1-14.83-10.3-23.81l-.81-37.75c-1.22-56.49-44.18-89.55-122.61-87.86-78.43,1.69-119.47,36.56-118.25,93.05l.81,37.75c.19,8.98-3.13,17.67-9.26,24.23Z"/>
    <path class="cls-2" d="M1352.82,1929.46c4.34-24.12,35.08-36.14,72.65-29.38,25.31,4.55,39.06,18.87,36.14,35.08-4.63,25.7-34.29,36.29-71.07,29.67-26.89-4.84-40.86-17.97-37.73-35.37Z"/>
    <path class="cls-2" d="M1473.3,2279.92l4.98-.11c12.44-.27,20.47-12.87,28.77-32.46,8.37-16.1,15.63-25.97,31.39-26.31,24.06-.52,25.39,22.75,15.12,66.08-6.11,24.6-16.15,39.96-28.18,40.22-13.69.3-25.88-6.82-52.84-6.24l-109.93,2.37c-36.09.78-41.32,8.27-56.26,8.59-11.2.24-20.09-7.72-29.48-38.97-13.42-44.76-11.8-66.15,11.01-66.65,15.76-.34,23.85,9.19,32.91,24.92,9.12,18.83,18.11,31.45,29.72,31.2l5.39-.12"/>
    <path class="cls-2" d="M1355.15,2122.53c-6.94-4.5-14.71-7.95-14.96-19.82-.72-13.41,7.24-21.33,19.9-28.84,18.18-9.69,44.49-18.52,70.56-19.08,16.24-.35,26.61,4.59,27.06,25.76l2.86,152.31c.3,13.94,1.86,26.82,14.49,37.4,6.54,6.05,10.51,11.65,10.74,21.98.45,20.65-8.84,26.53-52.84,28l-32.48.7c-43.6.42-53.98-5.03-54.43-25.69-.22-10.32,3.07-16.08,9.78-22.42,11.74-10.59,12.72-24.55,12.45-37.46l-1.4-84.68c-.26-11.87-3.02-21.11-11.72-28.16Z"/>
    <path class="cls-1" d="M1346.02,2291.39c-.09-4.41.45-7.98,1.63-11.12"/>
    <path class="cls-1" d="M1483.27,2276.8c1.52,3.21,2.39,6.91,2.49,11.58"/>
  </g>
  <g class="cls-4">
    <path class="cls-2" d="M2610.05,2041.13l13.45-14.39c8.66-9.27,24.2-3.33,24.48,9.35l1.46,67.57c1.86,86.12-58.74,139.99-165.01,142.28-106.27,2.29-169.59-48.91-171.45-135.03l-1.46-67.57c-.27-12.68,15-19.29,24.05-10.4l14.06,13.8c6.41,6.29,10.1,14.83,10.3,23.81l.81,37.75c1.22,56.49,44.18,89.55,122.61,87.86,78.43-1.69,119.47-36.56,118.25-93.05l-.81-37.75c-.19-8.98,3.13-17.67,9.26-24.23Z"/>
    <path class="cls-2" d="M2539.87,2309.32c-4.34,24.12-35.08,36.14-72.65,29.38-25.31-4.55-39.06-18.87-36.14-35.08,4.63-25.7,34.29-36.29,71.07-29.67,26.89,4.84,40.86,17.97,37.73,35.37Z"/>
    <path class="cls-2" d="M2419.39,1958.86l-4.98.11c-12.44.27-20.47,12.87-28.77,32.46-8.37,16.1-15.63,25.97-31.39,26.31-24.06.52-25.39-22.75-15.12-66.08,6.11-24.6,16.15-39.96,28.18-40.22,13.69-.3,25.88,6.82,52.84,6.24l109.93-2.37c36.09-.78,41.32-8.27,56.26-8.59,11.2-.24,20.09,7.72,29.48,38.97,13.42,44.76,11.8,66.15-11.01,66.65-15.76.34-23.85-9.19-32.91-24.92-9.12-18.83-18.11-31.45-29.72-31.2l-5.39.12"/>
    <path class="cls-2" d="M2537.53,2116.25c6.94,4.5,14.71,7.95,14.96,19.82.72,13.41-7.24,21.33-19.9,28.84-18.18,9.69-44.49,18.52-70.56,19.08-16.24.35-26.61-4.59-27.06-25.76l-2.86-152.31c-.3-13.94-1.86-26.82-14.49-37.4-6.54-6.05-10.51-11.65-10.74-21.98-.45-20.65,8.84-26.53,52.84-28l32.48-.7c43.6-.42,53.98,5.03,54.43,25.69.22,10.32-3.07,16.08-9.78,22.42-11.74,10.59-12.72,24.55-12.45,37.46l1.4,84.68c.26,11.87,3.02,21.11,11.72,28.16Z"/>
    <path class="cls-1" d="M2546.67,1947.4c.09,4.41-.45,7.98-1.63,11.12"/>
    <path class="cls-1" d="M2409.41,1961.98c-1.52-3.21-2.39-6.91-2.49-11.58"/>
  </g>
  <g class="cls-4">
    <path class="cls-2" d="M815.93,1937.64l-14.39-13.45c-9.27-8.66-3.33-24.2,9.35-24.48l67.57-1.46c86.12-1.86,139.99,58.74,142.28,165.01,2.29,106.27-48.91,169.59-135.03,171.45l-67.57,1.46c-12.68.27-19.29-15-10.4-24.05l13.8-14.06c6.29-6.41,14.83-10.1,23.81-10.3l37.75-.81c56.49-1.22,89.55-44.18,87.86-122.61-1.69-78.43-36.56-119.47-93.05-118.25l-37.75.81c-8.98.19-17.67-3.13-24.23-9.26Z"/>
    <path class="cls-2" d="M1084.13,2007.82c24.12,4.34,36.14,35.08,29.38,72.65-4.55,25.31-18.87,39.06-35.08,36.14-25.7-4.63-36.29-34.29-29.67-71.07,4.84-26.89,17.97-40.86,35.37-37.73Z"/>
    <path class="cls-2" d="M733.66,2128.3l.11,4.98c.27,12.44,12.87,20.47,32.46,28.77,16.1,8.37,25.97,15.63,26.31,31.39.52,24.06-22.75,25.39-66.08,15.12-24.6-6.11-39.96-16.15-40.22-28.18-.3-13.69,6.82-25.88,6.24-52.84l-2.37-109.93c-.78-36.09-8.27-41.32-8.59-56.26-.24-11.2,7.72-20.09,38.97-29.48,44.76-13.42,66.15-11.8,66.65,11.01.34,15.76-9.19,23.85-24.92,32.91-18.83,9.12-31.45,18.11-31.2,29.72l.12,5.39"/>
    <path class="cls-2" d="M891.06,2010.16c4.5-6.94,7.95-14.71,19.82-14.96,13.41-.72,21.33,7.24,28.84,19.9,9.69,18.18,18.52,44.49,19.08,70.56.35,16.24-4.59,26.61-25.76,27.06l-152.31,2.86c-13.94.3-26.82,1.86-37.4,14.49-6.05,6.54-11.65,10.51-21.98,10.74-20.65.45-26.53-8.84-28-52.84l-.7-32.48c-.42-43.6,5.03-53.98,25.69-54.43,10.32-.22,16.08,3.07,22.42,9.78,10.59,11.74,24.55,12.72,37.46,12.45l84.68-1.4c11.87-.26,21.11-3.02,28.16-11.72Z"/>
    <path class="cls-1" d="M722.2,2001.02c4.41-.09,7.98.45,11.12,1.63"/>
    <path class="cls-1" d="M736.79,2138.28c-3.21,1.52-6.91,2.39-11.58,2.49"/>
  </g>
  <g class="cls-4">
    <path class="cls-2" d="M3874.76,2197.66l-13.45,14.39c-8.66,9.27-24.2,3.33-24.48-9.35l-1.46-67.57c-1.86-86.12,58.74-139.99,165.01-142.28,106.27-2.29,169.59,48.91,171.45,135.03l1.46,67.57c.27,12.68-15,19.29-24.05,10.4l-14.06-13.8c-6.41-6.29-10.1-14.83-10.3-23.81l-.81-37.75c-1.22-56.49-44.18-89.55-122.61-87.86-78.43,1.69-119.47,36.56-118.25,93.05l.81,37.75c.19,8.98-3.13,17.67-9.26,24.23Z"/>
    <path class="cls-2" d="M3944.94,1929.46c4.34-24.12,35.08-36.14,72.65-29.38,25.31,4.55,39.06,18.87,36.14,35.08-4.63,25.7-34.29,36.29-71.07,29.67-26.89-4.84-40.86-17.97-37.73-35.37Z"/>
    <path class="cls-2" d="M4065.42,2279.92l4.98-.11c12.44-.27,20.47-12.87,28.77-32.46,8.37-16.1,15.63-25.97,31.39-26.31,24.06-.52,25.39,22.75,15.12,66.08-6.11,24.6-16.15,39.96-28.18,40.22-13.69.3-25.88-6.82-52.84-6.24l-109.93,2.37c-36.09.78-41.32,8.27-56.26,8.59-11.2.24-20.09-7.72-29.48-38.97-13.42-44.76-11.8-66.15,11.01-66.65,15.76-.34,23.85,9.19,32.91,24.92,9.12,18.83,18.11,31.45,29.72,31.2l5.39-.12"/>
    <path class="cls-2" d="M3947.28,2122.53c-6.94-4.5-14.71-7.95-14.96-19.82-.72-13.41,7.24-21.33,19.9-28.84,18.18-9.69,44.49-18.52,70.56-19.08,16.24-.35,26.61,4.59,27.06,25.76l2.86,152.31c.3,13.94,1.86,26.82,14.49,37.4,6.54,6.05,10.51,11.65,10.74,21.98.45,20.65-8.84,26.53-52.84,28l-32.48.7c-43.6.42-53.98-5.03-54.43-25.69-.22-10.32,3.07-16.08,9.78-22.42,11.74-10.59,12.72-24.55,12.45-37.46l-1.4-84.68c-.26-11.87-3.02-21.11-11.72-28.16Z"/>
    <path class="cls-1" d="M3938.14,2291.39c-.09-4.41.45-7.98,1.63-11.12"/>
    <path class="cls-1" d="M4075.4,2276.8c1.52,3.21,2.39,6.91,2.49,11.58"/>
  </g>
  <g class="cls-4">
    <path class="cls-2" d="M3609.57,2032.62l13.45-14.39c8.66-9.27,24.2-3.33,24.48,9.35l1.46,67.57c1.86,86.12-58.74,139.99-165.01,142.28-106.27,2.29-169.59-48.91-171.45-135.03l-1.46-67.57c-.27-12.68,15-19.29,24.05-10.4l14.06,13.8c6.41,6.29,10.1,14.83,10.3,23.81l.81,37.75c1.22,56.49,44.18,89.55,122.61,87.86,78.43-1.69,119.47-36.56,118.25-93.05l-.81-37.75c-.19-8.98,3.13-17.67,9.26-24.23Z"/>
    <path class="cls-2" d="M3539.39,2300.82c-4.34,24.12-35.08,36.14-72.65,29.38-25.31-4.55-39.06-18.87-36.14-35.08,4.63-25.7,34.29-36.29,71.07-29.67,26.89,4.84,40.86,17.97,37.73,35.37Z"/>
    <path class="cls-2" d="M3418.91,1950.36l-4.98.11c-12.44.27-20.47,12.87-28.77,32.46-8.37,16.1-15.63,25.97-31.39,26.31-24.06.52-25.39-22.75-15.12-66.08,6.11-24.6,16.15-39.96,28.18-40.22,13.69-.3,25.88,6.82,52.84,6.24l109.93-2.37c36.09-.78,41.32-8.27,56.26-8.59,11.2-.24,20.09,7.72,29.48,38.97,13.42,44.76,11.8,66.15-11.01,66.65-15.76.34-23.85-9.19-32.91-24.92-9.12-18.83-18.11-31.45-29.72-31.2l-5.39.12"/>
    <path class="cls-2" d="M3537.05,2107.75c6.94,4.5,14.71,7.95,14.96,19.82.72,13.41-7.24,21.33-19.9,28.84-18.18,9.69-44.49,18.52-70.56,19.08-16.24.35-26.61-4.59-27.06-25.76l-2.86-152.31c-.3-13.94-1.86-26.82-14.49-37.4-6.54-6.05-10.51-11.65-10.74-21.98-.45-20.65,8.84-26.53,52.84-28l32.48-.7c43.6-.42,53.98,5.03,54.43,25.69.22,10.32-3.07,16.08-9.78,22.42-11.74,10.59-12.72,24.55-12.45,37.46l1.4,84.68c.26,11.87,3.02,21.11,11.72,28.16Z"/>
    <path class="cls-1" d="M3546.19,1938.89c.09,4.41-.45,7.98-1.63,11.12"/>
    <path class="cls-1" d="M3408.93,1953.48c-1.52-3.21-2.39-6.91-2.49-11.58"/>
  </g>
  <g class="cls-4">
    <path class="cls-2" d="M4495.99,1980.16l-14.39-13.45c-9.27-8.66-3.33-24.2,9.35-24.48l67.57-1.46c86.12-1.86,139.99,58.74,142.28,165.01,2.29,106.27-48.91,169.59-135.03,171.45l-67.57,1.46c-12.68.27-19.29-15-10.4-24.05l13.8-14.06c6.29-6.41,14.83-10.1,23.81-10.3l37.75-.81c56.49-1.22,89.55-44.18,87.86-122.61-1.69-78.43-36.56-119.47-93.05-118.25l-37.75.81c-8.98.19-17.67-3.13-24.23-9.26Z"/>
    <path class="cls-2" d="M4764.18,2050.34c24.12,4.34,36.14,35.08,29.38,72.65-4.55,25.31-18.87,39.06-35.08,36.14-25.7-4.63-36.29-34.29-29.67-71.07,4.84-26.89,17.97-40.86,35.37-37.73Z"/>
    <path class="cls-2" d="M4413.72,2170.82l.11,4.98c.27,12.44,12.87,20.47,32.46,28.77,16.1,8.37,25.97,15.63,26.31,31.39.52,24.06-22.75,25.39-66.08,15.12-24.6-6.11-39.96-16.15-40.22-28.18-.3-13.69,6.82-25.88,6.24-52.84l-2.37-109.93c-.78-36.09-8.27-41.32-8.59-56.26-.24-11.2,7.72-20.09,38.97-29.48,44.76-13.42,66.15-11.8,66.65,11.01.34,15.76-9.19,23.85-24.92,32.91-18.83,9.12-31.45,18.11-31.2,29.72l.12,5.39"/>
    <path class="cls-2" d="M4571.11,2052.68c4.5-6.94,7.95-14.71,19.82-14.96,13.41-.72,21.33,7.24,28.84,19.9,9.69,18.18,18.52,44.49,19.08,70.56.35,16.24-4.59,26.61-25.76,27.06l-152.31,2.86c-13.94.3-26.82,1.86-37.4,14.49-6.05,6.54-11.65,10.51-21.98,10.74-20.65.45-26.53-8.84-28-52.84l-.7-32.48c-.42-43.6,5.03-53.98,25.69-54.43,10.32-.22,16.08,3.07,22.42,9.78,10.59,11.74,24.55,12.72,37.46,12.45l84.68-1.4c11.87-.26,21.11-3.02,28.16-11.72Z"/>
    <path class="cls-1" d="M4402.26,2043.54c4.41-.09,7.98.45,11.12,1.63"/>
    <path class="cls-1" d="M4416.85,2180.8c-3.21,1.52-6.91,2.39-11.58,2.49"/>
  </g>
  <g class="cls-4">
    <path class="cls-2" d="M4941.28,2197.66l-13.45,14.39c-8.66,9.27-24.2,3.33-24.48-9.35l-1.46-67.57c-1.86-86.12,58.74-139.99,165.01-142.28,106.27-2.29,169.59,48.91,171.45,135.03l1.46,67.57c.27,12.68-15,19.29-24.05,10.4l-14.06-13.8c-6.41-6.29-10.1-14.83-10.3-23.81l-.81-37.75c-1.22-56.49-44.18-89.55-122.61-87.86-78.43,1.69-119.47,36.56-118.25,93.05l.81,37.75c.19,8.98-3.13,17.67-9.26,24.23Z"/>
    <path class="cls-2" d="M5011.46,1929.46c4.34-24.12,35.08-36.14,72.65-29.38,25.31,4.55,39.06,18.87,36.14,35.08-4.63,25.7-34.29,36.29-71.07,29.67-26.89-4.84-40.86-17.97-37.73-35.37Z"/>
    <path class="cls-2" d="M5131.94,2279.92l4.98-.11c12.44-.27,20.47-12.87,28.77-32.46,8.37-16.1,15.63-25.97,31.39-26.31,24.06-.52,25.39,22.75,15.12,66.08-6.11,24.6-16.15,39.96-28.18,40.22-13.69.3-25.88-6.82-52.84-6.24l-109.93,2.37c-36.09.78-41.32,8.27-56.26,8.59-11.2.24-20.09-7.72-29.48-38.97-13.42-44.76-11.8-66.15,11.01-66.65,15.76-.34,23.85,9.19,32.91,24.92,9.12,18.83,18.11,31.45,29.72,31.2l5.39-.12"/>
    <path class="cls-2" d="M5013.8,2122.53c-6.94-4.5-14.71-7.95-14.96-19.82-.72-13.41,7.24-21.33,19.9-28.84,18.18-9.69,44.49-18.52,70.56-19.08,16.24-.35,26.61,4.59,27.06,25.76l2.86,152.31c.3,13.94,1.86,26.82,14.49,37.4,6.54,6.05,10.51,11.65,10.74,21.98.45,20.65-8.84,26.53-52.84,28l-32.48.7c-43.6.42-53.98-5.03-54.43-25.69-.22-10.32,3.07-16.08,9.78-22.42,11.74-10.59,12.72-24.55,12.45-37.46l-1.4-84.68c-.26-11.87-3.02-21.11-11.72-28.16Z"/>
    <path class="cls-1" d="M5004.66,2291.39c-.09-4.41.45-7.98,1.63-11.12"/>
    <path class="cls-1" d="M5141.92,2276.8c1.52,3.21,2.39,6.91,2.49,11.58"/>
  </g>
  <g class="cls-4">
    <path class="cls-2" d="M180.61,2716.39l-13.45,14.39c-8.66,9.27-24.2,3.33-24.48-9.35l-1.46-67.57c-1.86-86.12,58.74-139.99,165.01-142.28,106.27-2.29,169.59,48.91,171.45,135.03l1.46,67.57c.27,12.68-15,19.29-24.05,10.4l-14.06-13.8c-6.41-6.29-10.1-14.83-10.3-23.81l-.81-37.75c-1.22-56.49-44.18-89.55-122.61-87.86-78.43,1.69-119.47,36.56-118.25,93.05l.81,37.75c.19,8.98-3.13,17.67-9.26,24.23Z"/>
    <path class="cls-2" d="M250.79,2448.19c4.34-24.12,35.08-36.14,72.65-29.38,25.31,4.55,39.06,18.87,36.14,35.08-4.63,25.7-34.29,36.29-71.07,29.67-26.89-4.84-40.86-17.97-37.73-35.37Z"/>
    <path class="cls-2" d="M371.27,2798.65l4.98-.11c12.44-.27,20.47-12.87,28.77-32.46,8.37-16.1,15.63-25.97,31.39-26.31,24.06-.52,25.39,22.75,15.12,66.08-6.11,24.6-16.15,39.96-28.18,40.22-13.69.3-25.88-6.82-52.84-6.24l-109.93,2.37c-36.09.78-41.32,8.27-56.26,8.59-11.2.24-20.09-7.72-29.48-38.97-13.42-44.76-11.8-66.15,11.01-66.65,15.76-.34,23.85,9.19,32.91,24.92,9.12,18.83,18.11,31.45,29.72,31.2l5.39-.12"/>
    <path class="cls-2" d="M253.12,2641.26c-6.94-4.5-14.71-7.95-14.96-19.82-.72-13.41,7.24-21.33,19.9-28.84,18.18-9.69,44.49-18.52,70.56-19.08,16.24-.35,26.61,4.59,27.06,25.76l2.86,152.31c.3,13.94,1.86,26.82,14.49,37.4,6.54,6.05,10.51,11.65,10.74,21.98.45,20.65-8.84,26.53-52.84,28l-32.48.7c-43.6.42-53.98-5.03-54.43-25.69-.22-10.32,3.07-16.08,9.78-22.42,11.74-10.59,12.72-24.55,12.45-37.46l-1.4-84.68c-.26-11.87-3.02-21.11-11.72-28.16Z"/>
    <path class="cls-1" d="M243.99,2810.12c-.09-4.41.45-7.98,1.63-11.12"/>
    <path class="cls-1" d="M381.24,2795.53c1.52,3.21,2.39,6.91,2.49,11.58"/>
  </g>
  <g class="cls-4">
    <path class="cls-2" d="M928.91,2704.42l13.45-14.39c8.66-9.27,24.2-3.33,24.48,9.35l1.46,67.57c1.86,86.12-58.74,139.99-165.01,142.28-106.27,2.29-169.59-48.91-171.45-135.03l-1.46-67.57c-.27-12.68,15-19.29,24.05-10.4l14.06,13.8c6.41,6.29,10.1,14.83,10.3,23.81l.81,37.75c1.22,56.49,44.18,89.55,122.61,87.86,78.43-1.69,119.47-36.56,118.25-93.05l-.81-37.75c-.19-8.98,3.13-17.67,9.26-24.23Z"/>
    <path class="cls-2" d="M858.73,2972.62c-4.34,24.12-35.08,36.14-72.65,29.38-25.31-4.55-39.06-18.87-36.14-35.08,4.63-25.7,34.29-36.29,71.07-29.67,26.89,4.84,40.86,17.97,37.73,35.37Z"/>
    <path class="cls-2" d="M738.25,2622.16l-4.98.11c-12.44.27-20.47,12.87-28.77,32.46-8.37,16.1-15.63,25.97-31.39,26.31-24.06.52-25.39-22.75-15.12-66.08,6.11-24.6,16.15-39.96,28.18-40.22,13.69-.3,25.88,6.82,52.84,6.24l109.93-2.37c36.09-.78,41.32-8.27,56.26-8.59,11.2-.24,20.09,7.72,29.48,38.97,13.42,44.76,11.8,66.15-11.01,66.65-15.76.34-23.85-9.19-32.91-24.92-9.12-18.83-18.11-31.45-29.72-31.2l-5.39.12"/>
    <path class="cls-2" d="M856.39,2779.55c6.94,4.5,14.71,7.95,14.96,19.82.72,13.41-7.24,21.33-19.9,28.84-18.18,9.69-44.49,18.52-70.56,19.08-16.24.35-26.61-4.59-27.06-25.76l-2.86-152.31c-.3-13.94-1.86-26.82-14.49-37.4-6.54-6.05-10.51-11.65-10.74-21.98-.45-20.65,8.84-26.53,52.84-28l32.48-.7c43.6-.42,53.98,5.03,54.43,25.69.22,10.32-3.07,16.08-9.78,22.42-11.74,10.59-12.72,24.55-12.45,37.46l1.4,84.68c.26,11.87,3.02,21.11,11.72,28.16Z"/>
    <path class="cls-1" d="M865.53,2610.69c.09,4.41-.45,7.98-1.63,11.12"/>
    <path class="cls-1" d="M728.27,2625.28c-1.52-3.21-2.39-6.91-2.49-11.58"/>
  </g>
  <g class="cls-4">
    <path class="cls-2" d="M1261.03,2490.39l-14.39-13.45c-9.27-8.66-3.33-24.2,9.35-24.48l67.57-1.46c86.12-1.86,139.99,58.74,142.28,165.01,2.29,106.27-48.91,169.59-135.03,171.45l-67.57,1.46c-12.68.27-19.29-15-10.4-24.05l13.8-14.06c6.29-6.41,14.83-10.1,23.81-10.3l37.75-.81c56.49-1.22,89.55-44.18,87.86-122.61-1.69-78.43-36.56-119.47-93.05-118.25l-37.75.81c-8.98.19-17.67-3.13-24.23-9.26Z"/>
    <path class="cls-2" d="M1529.23,2560.57c24.12,4.34,36.14,35.08,29.38,72.65-4.55,25.31-18.87,39.06-35.08,36.14-25.7-4.63-36.29-34.29-29.67-71.07,4.84-26.89,17.97-40.86,35.37-37.73Z"/>
    <path class="cls-2" d="M1178.76,2681.05l.11,4.98c.27,12.44,12.87,20.47,32.46,28.77,16.1,8.37,25.97,15.63,26.31,31.39.52,24.06-22.75,25.39-66.08,15.12-24.6-6.11-39.96-16.15-40.22-28.18-.3-13.69,6.82-25.88,6.24-52.84l-2.37-109.93c-.78-36.09-8.27-41.32-8.59-56.26-.24-11.2,7.72-20.09,38.97-29.48,44.76-13.42,66.15-11.8,66.65,11.01.34,15.76-9.19,23.85-24.92,32.91-18.83,9.12-31.45,18.11-31.2,29.72l.12,5.39"/>
    <path class="cls-2" d="M1336.16,2562.9c4.5-6.94,7.95-14.71,19.82-14.96,13.41-.72,21.33,7.24,28.84,19.9,9.69,18.18,18.52,44.49,19.08,70.56.35,16.24-4.59,26.61-25.76,27.06l-152.31,2.86c-13.94.3-26.82,1.86-37.4,14.49-6.05,6.54-11.65,10.51-21.98,10.74-20.65.45-26.53-8.84-28-52.84l-.7-32.48c-.42-43.6,5.03-53.98,25.69-54.43,10.32-.22,16.08,3.07,22.42,9.78,10.59,11.74,24.55,12.72,37.46,12.45l84.68-1.4c11.87-.26,21.11-3.02,28.16-11.72Z"/>
    <path class="cls-1" d="M1167.3,2553.77c4.41-.09,7.98.45,11.12,1.63"/>
    <path class="cls-1" d="M1181.89,2691.02c-3.21,1.52-6.91,2.39-11.58,2.49"/>
  </g>
  <g class="cls-4">
    <path class="cls-2" d="M1704.61,2741.9l-13.45,14.39c-8.66,9.27-24.2,3.33-24.48-9.35l-1.46-67.57c-1.86-86.12,58.74-139.99,165.01-142.28,106.27-2.29,169.59,48.91,171.45,135.03l1.46,67.57c.27,12.68-15,19.29-24.05,10.4l-14.06-13.8c-6.41-6.29-10.1-14.83-10.3-23.81l-.81-37.75c-1.22-56.49-44.18-89.55-122.61-87.86-78.43,1.69-119.47,36.56-118.25,93.05l.81,37.75c.19,8.98-3.13,17.67-9.26,24.23Z"/>
    <path class="cls-2" d="M1774.79,2473.7c4.34-24.12,35.08-36.14,72.65-29.38,25.31,4.55,39.06,18.87,36.14,35.08-4.63,25.7-34.29,36.29-71.07,29.67-26.89-4.84-40.86-17.97-37.73-35.37Z"/>
    <path class="cls-2" d="M1895.27,2824.17l4.98-.11c12.44-.27,20.47-12.87,28.77-32.46,8.37-16.1,15.63-25.97,31.39-26.31,24.06-.52,25.39,22.75,15.12,66.08-6.11,24.6-16.15,39.96-28.18,40.22-13.69.3-25.88-6.82-52.84-6.24l-109.93,2.37c-36.09.78-41.32,8.27-56.26,8.59-11.2.24-20.09-7.72-29.48-38.97-13.42-44.76-11.8-66.15,11.01-66.65,15.76-.34,23.85,9.19,32.91,24.92,9.12,18.83,18.11,31.45,29.72,31.2l5.39-.12"/>
    <path class="cls-2" d="M1777.13,2666.77c-6.94-4.5-14.71-7.95-14.96-19.82-.72-13.41,7.24-21.33,19.9-28.84,18.18-9.69,44.49-18.52,70.56-19.08,16.24-.35,26.61,4.59,27.06,25.76l2.86,152.31c.3,13.94,1.86,26.82,14.49,37.4,6.54,6.05,10.51,11.65,10.74,21.98.45,20.65-8.84,26.53-52.84,28l-32.48.7c-43.6.42-53.98-5.03-54.43-25.69-.22-10.32,3.07-16.08,9.78-22.42,11.74-10.59,12.72-24.55,12.45-37.46l-1.4-84.68c-.26-11.87-3.02-21.11-11.72-28.16Z"/>
    <path class="cls-1" d="M1767.99,2835.63c-.09-4.41.45-7.98,1.63-11.12"/>
    <path class="cls-1" d="M1905.25,2821.04c1.52,3.21,2.39,6.91,2.49,11.58"/>
  </g>
  <g class="cls-4">
    <path class="cls-2" d="M2444.41,2610.88l13.45-14.39c8.66-9.27,24.2-3.33,24.48,9.35l1.46,67.57c1.86,86.12-58.74,139.99-165.01,142.28-106.27,2.29-169.59-48.91-171.45-135.03l-1.46-67.57c-.27-12.68,15-19.29,24.05-10.4l14.06,13.8c6.41,6.29,10.1,14.83,10.3,23.81l.81,37.75c1.22,56.49,44.18,89.55,122.61,87.86,78.43-1.69,119.47-36.56,118.25-93.05l-.81-37.75c-.19-8.98,3.13-17.67,9.26-24.23Z"/>
    <path class="cls-2" d="M2374.23,2879.08c-4.34,24.12-35.08,36.14-72.65,29.38-25.31-4.55-39.06-18.87-36.14-35.08,4.63-25.7,34.29-36.29,71.07-29.67,26.89,4.84,40.86,17.97,37.73,35.37Z"/>
    <path class="cls-2" d="M2253.75,2528.61l-4.98.11c-12.44.27-20.47,12.87-28.77,32.46-8.37,16.1-15.63,25.97-31.39,26.31-24.06.52-25.39-22.75-15.12-66.08,6.11-24.6,16.15-39.96,28.18-40.22,13.69-.3,25.88,6.82,52.84,6.24l109.93-2.37c36.09-.78,41.32-8.27,56.26-8.59,11.2-.24,20.09,7.72,29.48,38.97,13.42,44.76,11.8,66.15-11.01,66.65-15.76.34-23.85-9.19-32.91-24.92-9.12-18.83-18.11-31.45-29.72-31.2l-5.39.12"/>
    <path class="cls-2" d="M2371.89,2686.01c6.94,4.5,14.71,7.95,14.96,19.82.72,13.41-7.24,21.33-19.9,28.84-18.18,9.69-44.49,18.52-70.56,19.08-16.24.35-26.61-4.59-27.06-25.76l-2.86-152.31c-.3-13.94-1.86-26.82-14.49-37.4-6.54-6.05-10.51-11.65-10.74-21.98-.45-20.65,8.84-26.53,52.84-28l32.48-.7c43.6-.42,53.98,5.03,54.43,25.69.22,10.32-3.07,16.08-9.78,22.42-11.74,10.59-12.72,24.55-12.45,37.46l1.4,84.68c.26,11.87,3.02,21.11,11.72,28.16Z"/>
    <path class="cls-1" d="M2381.03,2517.15c.09,4.41-.45,7.98-1.63,11.12"/>
    <path class="cls-1" d="M2243.77,2531.74c-1.52-3.21-2.39-6.91-2.49-11.58"/>
  </g>
  <g class="cls-4">
    <path class="cls-2" d="M2785.04,2515.9l-14.39-13.45c-9.27-8.66-3.33-24.2,9.35-24.48l67.57-1.46c86.12-1.86,139.99,58.74,142.28,165.01,2.29,106.27-48.91,169.59-135.03,171.45l-67.57,1.46c-12.68.27-19.29-15-10.4-24.05l13.8-14.06c6.29-6.41,14.83-10.1,23.81-10.3l37.75-.81c56.49-1.22,89.55-44.18,87.86-122.61-1.69-78.43-36.56-119.47-93.05-118.25l-37.75.81c-8.98.19-17.67-3.13-24.23-9.26Z"/>
    <path class="cls-2" d="M3053.23,2586.08c24.12,4.34,36.14,35.08,29.38,72.65-4.55,25.31-18.87,39.06-35.08,36.14-25.7-4.63-36.29-34.29-29.67-71.07,4.84-26.89,17.97-40.86,35.37-37.73Z"/>
    <path class="cls-2" d="M2702.77,2706.56l.11,4.98c.27,12.44,12.87,20.47,32.46,28.77,16.1,8.37,25.97,15.63,26.31,31.39.52,24.06-22.75,25.39-66.08,15.12-24.6-6.11-39.96-16.15-40.22-28.18-.3-13.69,6.82-25.88,6.24-52.84l-2.37-109.93c-.78-36.09-8.27-41.32-8.59-56.26-.24-11.2,7.72-20.09,38.97-29.48,44.76-13.42,66.15-11.8,66.65,11.01.34,15.76-9.19,23.85-24.92,32.91-18.83,9.12-31.45,18.11-31.2,29.72l.12,5.39"/>
    <path class="cls-2" d="M2860.16,2588.42c4.5-6.94,7.95-14.71,19.82-14.96,13.41-.72,21.33,7.24,28.84,19.9,9.69,18.18,18.52,44.49,19.08,70.56.35,16.24-4.59,26.61-25.76,27.06l-152.31,2.86c-13.94.3-26.82,1.86-37.4,14.49-6.05,6.54-11.65,10.51-21.98,10.74-20.65.45-26.53-8.84-28-52.84l-.7-32.48c-.42-43.6,5.03-53.98,25.69-54.43,10.32-.22,16.08,3.07,22.42,9.78,10.59,11.74,24.55,12.72,37.46,12.45l84.68-1.4c11.87-.26,21.11-3.02,28.16-11.72Z"/>
    <path class="cls-1" d="M2691.31,2579.28c4.41-.09,7.98.45,11.12,1.63"/>
    <path class="cls-1" d="M2705.89,2716.54c-3.21,1.52-6.91,2.39-11.58,2.49"/>
  </g>
  <g class="cls-4">
    <path class="cls-2" d="M3229.9,2775.91l-13.45,14.39c-8.66,9.27-24.2,3.33-24.48-9.35l-1.46-67.57c-1.86-86.12,58.74-139.99,165.01-142.28,106.27-2.29,169.59,48.91,171.45,135.03l1.46,67.57c.27,12.68-15,19.29-24.05,10.4l-14.06-13.8c-6.41-6.29-10.1-14.83-10.3-23.81l-.81-37.75c-1.22-56.49-44.18-89.55-122.61-87.86-78.43,1.69-119.47,36.56-118.25,93.05l.81,37.75c.19,8.98-3.13,17.67-9.26,24.23Z"/>
    <path class="cls-2" d="M3300.08,2507.72c4.34-24.12,35.08-36.14,72.65-29.38,25.31,4.55,39.06,18.87,36.14,35.08-4.63,25.7-34.29,36.29-71.07,29.67-26.89-4.84-40.86-17.97-37.73-35.37Z"/>
    <path class="cls-2" d="M3420.56,2858.18l4.98-.11c12.44-.27,20.47-12.87,28.77-32.46,8.37-16.1,15.63-25.97,31.39-26.31,24.06-.52,25.39,22.75,15.12,66.08-6.11,24.6-16.15,39.96-28.18,40.22-13.69.3-25.88-6.82-52.84-6.24l-109.93,2.37c-36.09.78-41.32,8.27-56.26,8.59-11.2.24-20.09-7.72-29.48-38.97-13.42-44.76-11.8-66.15,11.01-66.65,15.76-.34,23.85,9.19,32.91,24.92,9.12,18.83,18.11,31.45,29.72,31.2l5.39-.12"/>
    <path class="cls-2" d="M3302.42,2700.79c-6.94-4.5-14.71-7.95-14.96-19.82-.72-13.41,7.24-21.33,19.9-28.84,18.18-9.69,44.49-18.52,70.56-19.08,16.24-.35,26.61,4.59,27.06,25.76l2.86,152.31c.3,13.94,1.86,26.82,14.49,37.4,6.54,6.05,10.51,11.65,10.74,21.98.45,20.65-8.84,26.53-52.84,28l-32.48.7c-43.6.42-53.98-5.03-54.43-25.69-.22-10.32,3.07-16.08,9.78-22.42,11.74-10.59,12.72-24.55,12.45-37.46l-1.4-84.68c-.26-11.87-3.02-21.11-11.72-28.16Z"/>
    <path class="cls-1" d="M3293.28,2869.64c-.09-4.41.45-7.98,1.63-11.12"/>
    <path class="cls-1" d="M3430.54,2855.06c1.52,3.21,2.39,6.91,2.49,11.58"/>
  </g>
  <g class="cls-4">
    <path class="cls-2" d="M3969.7,2610.88l13.45-14.39c8.66-9.27,24.2-3.33,24.48,9.35l1.46,67.57c1.86,86.12-58.74,139.99-165.01,142.28-106.27,2.29-169.59-48.91-171.45-135.03l-1.46-67.57c-.27-12.68,15-19.29,24.05-10.4l14.06,13.8c6.41,6.29,10.1,14.83,10.3,23.81l.81,37.75c1.22,56.49,44.18,89.55,122.61,87.86,78.43-1.69,119.47-36.56,118.25-93.05l-.81-37.75c-.19-8.98,3.13-17.67,9.26-24.23Z"/>
    <path class="cls-2" d="M3899.52,2879.08c-4.34,24.12-35.08,36.14-72.65,29.38-25.31-4.55-39.06-18.87-36.14-35.08,4.63-25.7,34.29-36.29,71.07-29.67,26.89,4.84,40.86,17.97,37.73,35.37Z"/>
    <path class="cls-2" d="M3779.04,2528.61l-4.98.11c-12.44.27-20.47,12.87-28.77,32.46-8.37,16.1-15.63,25.97-31.39,26.31-24.06.52-25.39-22.75-15.12-66.08,6.11-24.6,16.15-39.96,28.18-40.22,13.69-.3,25.88,6.82,52.84,6.24l109.93-2.37c36.09-.78,41.32-8.27,56.26-8.59,11.2-.24,20.09,7.72,29.48,38.97,13.42,44.76,11.8,66.15-11.01,66.65-15.76.34-23.85-9.19-32.91-24.92-9.12-18.83-18.11-31.45-29.72-31.2l-5.39.12"/>
    <path class="cls-2" d="M3897.18,2686.01c6.94,4.5,14.71,7.95,14.96,19.82.72,13.41-7.24,21.33-19.9,28.84-18.18,9.69-44.49,18.52-70.56,19.08-16.24.35-26.61-4.59-27.06-25.76l-2.86-152.31c-.3-13.94-1.86-26.82-14.49-37.4-6.54-6.05-10.51-11.65-10.74-21.98-.45-20.65,8.84-26.53,52.84-28l32.48-.7c43.6-.42,53.98,5.03,54.43,25.69.22,10.32-3.07,16.08-9.78,22.42-11.74,10.59-12.72,24.55-12.45,37.46l1.4,84.68c.26,11.87,3.02,21.11,11.72,28.16Z"/>
    <path class="cls-1" d="M3906.32,2517.15c.09,4.41-.45,7.98-1.63,11.12"/>
    <path class="cls-1" d="M3769.06,2531.74c-1.52-3.21-2.39-6.91-2.49-11.58"/>
  </g>
  <g class="cls-4">
    <path class="cls-2" d="M4352.84,2515.9l-14.39-13.45c-9.27-8.66-3.33-24.2,9.35-24.48l67.57-1.46c86.12-1.86,139.99,58.74,142.28,165.01,2.29,106.27-48.91,169.59-135.03,171.45l-67.57,1.46c-12.68.27-19.29-15-10.4-24.05l13.8-14.06c6.29-6.41,14.83-10.1,23.81-10.3l37.75-.81c56.49-1.22,89.55-44.18,87.86-122.61-1.69-78.43-36.56-119.47-93.05-118.25l-37.75.81c-8.98.19-17.67-3.13-24.23-9.26Z"/>
    <path class="cls-2" d="M4621.04,2586.08c24.12,4.34,36.14,35.08,29.38,72.65-4.55,25.31-18.87,39.06-35.08,36.14-25.7-4.63-36.29-34.29-29.67-71.07,4.84-26.89,17.97-40.86,35.37-37.73Z"/>
    <path class="cls-2" d="M4270.58,2706.56l.11,4.98c.27,12.44,12.87,20.47,32.46,28.77,16.1,8.37,25.97,15.63,26.31,31.39.52,24.06-22.75,25.39-66.08,15.12-24.6-6.11-39.96-16.15-40.22-28.18-.3-13.69,6.82-25.88,6.24-52.84l-2.37-109.93c-.78-36.09-8.27-41.32-8.59-56.26-.24-11.2,7.72-20.09,38.97-29.48,44.76-13.42,66.15-11.8,66.65,11.01.34,15.76-9.19,23.85-24.92,32.91-18.83,9.12-31.45,18.11-31.2,29.72l.12,5.39"/>
    <path class="cls-2" d="M4427.97,2588.42c4.5-6.94,7.95-14.71,19.82-14.96,13.41-.72,21.33,7.24,28.84,19.9,9.69,18.18,18.52,44.49,19.08,70.56.35,16.24-4.59,26.61-25.76,27.06l-152.31,2.86c-13.94.3-26.82,1.86-37.4,14.49-6.05,6.54-11.65,10.51-21.98,10.74-20.65.45-26.53-8.84-28-52.84l-.7-32.48c-.42-43.6,5.03-53.98,25.69-54.43,10.32-.22,16.08,3.07,22.42,9.78,10.59,11.74,24.55,12.72,37.46,12.45l84.68-1.4c11.87-.26,21.11-3.02,28.16-11.72Z"/>
    <path class="cls-1" d="M4259.11,2579.28c4.41-.09,7.98.45,11.12,1.63"/>
    <path class="cls-1" d="M4273.7,2716.54c-3.21,1.52-6.91,2.39-11.58,2.49"/>
  </g>
  <g class="cls-4">
    <path class="cls-2" d="M4841.87,2775.91l-13.45,14.39c-8.66,9.27-24.2,3.33-24.48-9.35l-1.46-67.57c-1.86-86.12,58.74-139.99,165.01-142.28,106.27-2.29,169.59,48.91,171.45,135.03l1.46,67.57c.27,12.68-15,19.29-24.05,10.4l-14.06-13.8c-6.41-6.29-10.1-14.83-10.3-23.81l-.81-37.75c-1.22-56.49-44.18-89.55-122.61-87.86-78.43,1.69-119.47,36.56-118.25,93.05l.81,37.75c.19,8.98-3.13,17.67-9.26,24.23Z"/>
    <path class="cls-2" d="M4912.05,2507.72c4.34-24.12,35.08-36.14,72.65-29.38,25.31,4.55,39.06,18.87,36.14,35.08-4.63,25.7-34.29,36.29-71.07,29.67-26.89-4.84-40.86-17.97-37.73-35.37Z"/>
    <path class="cls-2" d="M5032.53,2858.18l4.98-.11c12.44-.27,20.47-12.87,28.77-32.46,8.37-16.1,15.63-25.97,31.39-26.31,24.06-.52,25.39,22.75,15.12,66.08-6.11,24.6-16.15,39.96-28.18,40.22-13.69.3-25.88-6.82-52.84-6.24l-109.93,2.37c-36.09.78-41.32,8.27-56.26,8.59-11.2.24-20.09-7.72-29.48-38.97-13.42-44.76-11.8-66.15,11.01-66.65,15.76-.34,23.85,9.19,32.91,24.92,9.12,18.83,18.11,31.45,29.72,31.2l5.39-.12"/>
    <path class="cls-2" d="M4914.39,2700.79c-6.94-4.5-14.71-7.95-14.96-19.82-.72-13.41,7.24-21.33,19.9-28.84,18.18-9.69,44.49-18.52,70.56-19.08,16.24-.35,26.61,4.59,27.06,25.76l2.86,152.31c.3,13.94,1.86,26.82,14.49,37.4,6.54,6.05,10.51,11.65,10.74,21.98.45,20.65-8.84,26.53-52.84,28l-32.48.7c-43.6.42-53.98-5.03-54.43-25.69-.22-10.32,3.07-16.08,9.78-22.42,11.74-10.59,12.72-24.55,12.45-37.46l-1.4-84.68c-.26-11.87-3.02-21.11-11.72-28.16Z"/>
    <path class="cls-1" d="M4905.25,2869.64c-.09-4.41.45-7.98,1.63-11.12"/>
    <path class="cls-1" d="M5042.51,2855.06c1.52,3.21,2.39,6.91,2.49,11.58"/>
  </g>
  <g class="cls-4">
    <path class="cls-2" d="M5054.74,3120.17l13.45-14.39c8.66-9.27,24.2-3.33,24.48,9.35l1.46,67.57c1.86,86.12-58.74,139.99-165.01,142.28-106.27,2.29-169.59-48.91-171.45-135.03l-1.46-67.57c-.27-12.68,15-19.29,24.05-10.4l14.06,13.8c6.41,6.29,10.1,14.83,10.3,23.81l.81,37.75c1.22,56.49,44.18,89.55,122.61,87.86,78.43-1.69,119.47-36.56,118.25-93.05l-.81-37.75c-.19-8.98,3.13-17.67,9.26-24.23Z"/>
    <path class="cls-2" d="M4984.56,3388.37c-4.34,24.12-35.08,36.14-72.65,29.38-25.31-4.55-39.06-18.87-36.14-35.08,4.63-25.7,34.29-36.29,71.07-29.67,26.89,4.84,40.86,17.97,37.73,35.37Z"/>
    <path class="cls-2" d="M4864.08,3037.9l-4.98.11c-12.44.27-20.47,12.87-28.77,32.46-8.37,16.1-15.63,25.97-31.39,26.31-24.06.52-25.39-22.75-15.12-66.08,6.11-24.6,16.15-39.96,28.18-40.22,13.69-.3,25.88,6.82,52.84,6.24l109.93-2.37c36.09-.78,41.32-8.27,56.26-8.59,11.2-.24,20.09,7.72,29.48,38.97,13.42,44.76,11.8,66.15-11.01,66.65-15.76.34-23.85-9.19-32.91-24.92-9.12-18.83-18.11-31.45-29.72-31.2l-5.39.12"/>
    <path class="cls-2" d="M4982.22,3195.3c6.94,4.5,14.71,7.95,14.96,19.82.72,13.41-7.24,21.33-19.9,28.84-18.18,9.69-44.49,18.52-70.56,19.08-16.24.35-26.61-4.59-27.06-25.76l-2.86-152.31c-.3-13.94-1.86-26.82-14.49-37.4-6.54-6.05-10.51-11.65-10.74-21.98-.45-20.65,8.84-26.53,52.84-28l32.48-.7c43.6-.42,53.98,5.03,54.43,25.69.22,10.32-3.07,16.08-9.78,22.42-11.74,10.59-12.72,24.55-12.45,37.46l1.4,84.68c.26,11.87,3.02,21.11,11.72,28.16Z"/>
    <path class="cls-1" d="M4991.36,3026.44c.09,4.41-.45,7.98-1.63,11.12"/>
    <path class="cls-1" d="M4854.1,3041.03c-1.52-3.21-2.39-6.91-2.49-11.58"/>
  </g>
  <g class="cls-4">
    <path class="cls-2" d="M4314.94,3276.7l-13.45,14.39c-8.66,9.27-24.2,3.33-24.48-9.35l-1.46-67.57c-1.86-86.12,58.74-139.99,165.01-142.28,106.27-2.29,169.59,48.91,171.45,135.03l1.46,67.57c.27,12.68-15,19.29-24.05,10.4l-14.06-13.8c-6.41-6.29-10.1-14.83-10.3-23.81l-.81-37.75c-1.22-56.49-44.18-89.55-122.61-87.86-78.43,1.69-119.47,36.56-118.25,93.05l.81,37.75c.19,8.98-3.13,17.67-9.26,24.23Z"/>
    <path class="cls-2" d="M4385.12,3008.5c4.34-24.12,35.08-36.14,72.65-29.38,25.31,4.55,39.06,18.87,36.14,35.08-4.63,25.7-34.29,36.29-71.07,29.67-26.89-4.84-40.86-17.97-37.73-35.37Z"/>
    <path class="cls-2" d="M4505.6,3358.97l4.98-.11c12.44-.27,20.47-12.87,28.77-32.46,8.37-16.1,15.63-25.97,31.39-26.31,24.06-.52,25.39,22.75,15.12,66.08-6.11,24.6-16.15,39.96-28.18,40.22-13.69.3-25.88-6.82-52.84-6.24l-109.93,2.37c-36.09.78-41.32,8.27-56.26,8.59-11.2.24-20.09-7.72-29.48-38.97-13.42-44.76-11.8-66.15,11.01-66.65,15.76-.34,23.85,9.19,32.91,24.92,9.12,18.83,18.11,31.45,29.72,31.2l5.39-.12"/>
    <path class="cls-2" d="M4387.46,3201.58c-6.94-4.5-14.71-7.95-14.96-19.82-.72-13.41,7.24-21.33,19.9-28.84,18.18-9.69,44.49-18.52,70.56-19.08,16.24-.35,26.61,4.59,27.06,25.76l2.86,152.31c.3,13.94,1.86,26.82,14.49,37.4,6.54,6.05,10.51,11.65,10.74,21.98.45,20.65-8.84,26.53-52.84,28l-32.48.7c-43.6.42-53.98-5.03-54.43-25.69-.22-10.32,3.07-16.08,9.78-22.42,11.74-10.59,12.72-24.55,12.45-37.46l-1.4-84.68c-.26-11.87-3.02-21.11-11.72-28.16Z"/>
    <path class="cls-1" d="M4378.32,3370.43c-.09-4.41.45-7.98,1.63-11.12"/>
    <path class="cls-1" d="M4515.58,3355.84c1.52,3.21,2.39,6.91,2.49,11.58"/>
  </g>
  <g class="cls-4">
    <path class="cls-2" d="M3974.31,3346.17l14.39,13.45c9.27,8.66,3.33,24.2-9.35,24.48l-67.57,1.46c-86.12,1.86-139.99-58.74-142.28-165.01-2.29-106.27,48.91-169.59,135.03-171.45l67.57-1.46c12.68-.27,19.29,15,10.4,24.05l-13.8,14.06c-6.29,6.41-14.83,10.1-23.81,10.3l-37.75.81c-56.49,1.22-89.55,44.18-87.86,122.61,1.69,78.43,36.56,119.47,93.05,118.25l37.75-.81c8.98-.19,17.67,3.13,24.23,9.26Z"/>
    <path class="cls-2" d="M3706.12,3275.99c-24.12-4.34-36.14-35.08-29.38-72.65,4.55-25.31,18.87-39.06,35.08-36.14,25.7,4.63,36.29,34.29,29.67,71.07-4.84,26.89-17.97,40.86-35.37,37.73Z"/>
    <path class="cls-2" d="M4056.58,3155.51l-.11-4.98c-.27-12.44-12.87-20.47-32.46-28.77-16.1-8.37-25.97-15.63-26.31-31.39-.52-24.06,22.75-25.39,66.08-15.12,24.6,6.11,39.96,16.15,40.22,28.18.3,13.69-6.82,25.88-6.24,52.84l2.37,109.93c.78,36.09,8.27,41.32,8.59,56.26.24,11.2-7.72,20.09-38.97,29.48-44.76,13.42-66.15,11.8-66.65-11.01-.34-15.76,9.19-23.85,24.92-32.91,18.83-9.12,31.45-18.11,31.2-29.72l-.12-5.39"/>
    <path class="cls-2" d="M3899.19,3273.65c-4.5,6.94-7.95,14.71-19.82,14.96-13.41.72-21.33-7.24-28.84-19.9-9.69-18.18-18.52-44.49-19.08-70.56-.35-16.24,4.59-26.61,25.76-27.06l152.31-2.86c13.94-.3,26.82-1.86,37.4-14.49,6.05-6.54,11.65-10.51,21.98-10.74,20.65-.45,26.53,8.84,28,52.84l.7,32.48c.42,43.6-5.03,53.98-25.69,54.43-10.32.22-16.08-3.07-22.42-9.78-10.59-11.74-24.55-12.72-37.46-12.45l-84.68,1.4c-11.87.26-21.11,3.02-28.16,11.72Z"/>
    <path class="cls-1" d="M4068.04,3282.79c-4.41.09-7.98-.45-11.12-1.63"/>
    <path class="cls-1" d="M4053.46,3145.53c3.21-1.52,6.91-2.39,11.58-2.49"/>
  </g>
  <g class="cls-4">
    <path class="cls-2" d="M3530.73,3120.17l13.45-14.39c8.66-9.27,24.2-3.33,24.48,9.35l1.46,67.57c1.86,86.12-58.74,139.99-165.01,142.28-106.27,2.29-169.59-48.91-171.45-135.03l-1.46-67.57c-.27-12.68,15-19.29,24.05-10.4l14.06,13.8c6.41,6.29,10.1,14.83,10.3,23.81l.81,37.75c1.22,56.49,44.18,89.55,122.61,87.86,78.43-1.69,119.47-36.56,118.25-93.05l-.81-37.75c-.19-8.98,3.13-17.67,9.26-24.23Z"/>
    <path class="cls-2" d="M3460.55,3388.37c-4.34,24.12-35.08,36.14-72.65,29.38-25.31-4.55-39.06-18.87-36.14-35.08,4.63-25.7,34.29-36.29,71.07-29.67,26.89,4.84,40.86,17.97,37.73,35.37Z"/>
    <path class="cls-2" d="M3340.07,3037.9l-4.98.11c-12.44.27-20.47,12.87-28.77,32.46-8.37,16.1-15.63,25.97-31.39,26.31-24.06.52-25.39-22.75-15.12-66.08,6.11-24.6,16.15-39.96,28.18-40.22,13.69-.3,25.88,6.82,52.84,6.24l109.93-2.37c36.09-.78,41.32-8.27,56.26-8.59,11.2-.24,20.09,7.72,29.48,38.97,13.42,44.76,11.8,66.15-11.01,66.65-15.76.34-23.85-9.19-32.91-24.92-9.12-18.83-18.11-31.45-29.72-31.2l-5.39.12"/>
    <path class="cls-2" d="M3458.22,3195.3c6.94,4.5,14.71,7.95,14.96,19.82.72,13.41-7.24,21.33-19.9,28.84-18.18,9.69-44.49,18.52-70.56,19.08-16.24.35-26.61-4.59-27.06-25.76l-2.86-152.31c-.3-13.94-1.86-26.82-14.49-37.4-6.54-6.05-10.51-11.65-10.74-21.98-.45-20.65,8.84-26.53,52.84-28l32.48-.7c43.6-.42,53.98,5.03,54.43,25.69.22,10.32-3.07,16.08-9.78,22.42-11.74,10.59-12.72,24.55-12.45,37.46l1.4,84.68c.26,11.87,3.02,21.11,11.72,28.16Z"/>
    <path class="cls-1" d="M3467.35,3026.44c.09,4.41-.45,7.98-1.63,11.12"/>
    <path class="cls-1" d="M3330.1,3041.03c-1.52-3.21-2.39-6.91-2.49-11.58"/>
  </g>
  <g class="cls-4">
    <path class="cls-2" d="M2790.93,3285.2l-13.45,14.39c-8.66,9.27-24.2,3.33-24.48-9.35l-1.46-67.57c-1.86-86.12,58.74-139.99,165.01-142.28,106.27-2.29,169.59,48.91,171.45,135.03l1.46,67.57c.27,12.68-15,19.29-24.05,10.4l-14.06-13.8c-6.41-6.29-10.1-14.83-10.3-23.81l-.81-37.75c-1.22-56.49-44.18-89.55-122.61-87.86-78.43,1.69-119.47,36.56-118.25,93.05l.81,37.75c.19,8.98-3.13,17.67-9.26,24.23Z"/>
    <path class="cls-2" d="M2861.12,3017.01c4.34-24.12,35.08-36.14,72.65-29.38,25.31,4.55,39.06,18.87,36.14,35.08-4.63,25.7-34.29,36.29-71.07,29.67-26.89-4.84-40.86-17.97-37.73-35.37Z"/>
    <path class="cls-2" d="M2981.59,3367.47l4.98-.11c12.44-.27,20.47-12.87,28.77-32.46,8.37-16.1,15.63-25.97,31.39-26.31,24.06-.52,25.39,22.75,15.12,66.08-6.11,24.6-16.15,39.96-28.18,40.22-13.69.3-25.88-6.82-52.84-6.24l-109.93,2.37c-36.09.78-41.32,8.27-56.26,8.59-11.2.24-20.09-7.72-29.48-38.97-13.42-44.76-11.8-66.15,11.01-66.65,15.76-.34,23.85,9.19,32.91,24.92,9.12,18.83,18.11,31.45,29.72,31.2l5.39-.12"/>
    <path class="cls-2" d="M2863.45,3210.08c-6.94-4.5-14.71-7.95-14.96-19.82-.72-13.41,7.24-21.33,19.9-28.84,18.18-9.69,44.49-18.52,70.56-19.08,16.24-.35,26.61,4.59,27.06,25.76l2.86,152.31c.3,13.94,1.86,26.82,14.49,37.4,6.54,6.05,10.51,11.65,10.74,21.98.45,20.65-8.84,26.53-52.84,28l-32.48.7c-43.6.42-53.98-5.03-54.43-25.69-.22-10.32,3.07-16.08,9.78-22.42,11.74-10.59,12.72-24.55,12.45-37.46l-1.4-84.68c-.26-11.87-3.02-21.11-11.72-28.16Z"/>
    <path class="cls-1" d="M2854.31,3378.93c-.09-4.41.45-7.98,1.63-11.12"/>
    <path class="cls-1" d="M2991.57,3364.35c1.52,3.21,2.39,6.91,2.49,11.58"/>
  </g>
  <g class="cls-4">
    <path class="cls-2" d="M2450.31,3329.16l14.39,13.45c9.27,8.66,3.33,24.2-9.35,24.48l-67.57,1.46c-86.12,1.86-139.99-58.74-142.28-165.01-2.29-106.27,48.91-169.59,135.03-171.45l67.57-1.46c12.68-.27,19.29,15,10.4,24.05l-13.8,14.06c-6.29,6.41-14.83,10.1-23.81,10.3l-37.75.81c-56.49,1.22-89.55,44.18-87.86,122.61,1.69,78.43,36.56,119.47,93.05,118.25l37.75-.81c8.98-.19,17.67,3.13,24.23,9.26Z"/>
    <path class="cls-2" d="M2182.11,3258.98c-24.12-4.34-36.14-35.08-29.38-72.65,4.55-25.31,18.87-39.06,35.08-36.14,25.7,4.63,36.29,34.29,29.67,71.07-4.84,26.89-17.97,40.86-35.37,37.73Z"/>
    <path class="cls-2" d="M2532.58,3138.5l-.11-4.98c-.27-12.44-12.87-20.47-32.46-28.77-16.1-8.37-25.97-15.63-26.31-31.39-.52-24.06,22.75-25.39,66.08-15.12,24.6,6.11,39.96,16.15,40.22,28.18.3,13.69-6.82,25.88-6.24,52.84l2.37,109.93c.78,36.09,8.27,41.32,8.59,56.26.24,11.2-7.72,20.09-38.97,29.48-44.76,13.42-66.15,11.8-66.65-11.01-.34-15.76,9.19-23.85,24.92-32.91,18.83-9.12,31.45-18.11,31.2-29.72l-.12-5.39"/>
    <path class="cls-2" d="M2375.18,3256.65c-4.5,6.94-7.95,14.71-19.82,14.96-13.41.72-21.33-7.24-28.84-19.9-9.69-18.18-18.52-44.49-19.08-70.56-.35-16.24,4.59-26.61,25.76-27.06l152.31-2.86c13.94-.3,26.82-1.86,37.4-14.49,6.05-6.54,11.65-10.51,21.98-10.74,20.65-.45,26.53,8.84,28,52.84l.7,32.48c.42,43.6-5.03,53.98-25.69,54.43-10.32.22-16.08-3.07-22.42-9.78-10.59-11.74-24.55-12.72-37.46-12.45l-84.68,1.4c-11.87.26-21.11,3.02-28.16,11.72Z"/>
    <path class="cls-1" d="M2544.04,3265.78c-4.41.09-7.98-.45-11.12-1.63"/>
    <path class="cls-1" d="M2529.45,3128.53c3.21-1.52,6.91-2.39,11.58-2.49"/>
  </g>
  <g class="cls-4">
    <path class="cls-2" d="M2005.45,3120.17l13.45-14.39c8.66-9.27,24.2-3.33,24.48,9.35l1.46,67.57c1.86,86.12-58.74,139.99-165.01,142.28-106.27,2.29-169.59-48.91-171.45-135.03l-1.46-67.57c-.27-12.68,15-19.29,24.05-10.4l14.06,13.8c6.41,6.29,10.1,14.83,10.3,23.81l.81,37.75c1.22,56.49,44.18,89.55,122.61,87.86,78.43-1.69,119.47-36.56,118.25-93.05l-.81-37.75c-.19-8.98,3.13-17.67,9.26-24.23Z"/>
    <path class="cls-2" d="M1935.26,3388.37c-4.34,24.12-35.08,36.14-72.65,29.38-25.31-4.55-39.06-18.87-36.14-35.08,4.63-25.7,34.29-36.29,71.07-29.67,26.89,4.84,40.86,17.97,37.73,35.37Z"/>
    <path class="cls-2" d="M1814.79,3037.9l-4.98.11c-12.44.27-20.47,12.87-28.77,32.46-8.37,16.1-15.63,25.97-31.39,26.31-24.06.52-25.39-22.75-15.12-66.08,6.11-24.6,16.15-39.96,28.18-40.22,13.69-.3,25.88,6.82,52.84,6.24l109.93-2.37c36.09-.78,41.32-8.27,56.26-8.59,11.2-.24,20.09,7.72,29.48,38.97,13.42,44.76,11.8,66.15-11.01,66.65-15.76.34-23.85-9.19-32.91-24.92-9.12-18.83-18.11-31.45-29.72-31.2l-5.39.12"/>
    <path class="cls-2" d="M1932.93,3195.3c6.94,4.5,14.71,7.95,14.96,19.82.72,13.41-7.24,21.33-19.9,28.84-18.18,9.69-44.49,18.52-70.56,19.08-16.24.35-26.61-4.59-27.06-25.76l-2.86-152.31c-.3-13.94-1.86-26.82-14.49-37.4-6.54-6.05-10.51-11.65-10.74-21.98-.45-20.65,8.84-26.53,52.84-28l32.48-.7c43.6-.42,53.98,5.03,54.43,25.69.22,10.32-3.07,16.08-9.78,22.42-11.74,10.59-12.72,24.55-12.45,37.46l1.4,84.68c.26,11.87,3.02,21.11,11.72,28.16Z"/>
    <path class="cls-1" d="M1942.07,3026.44c.09,4.41-.45,7.98-1.63,11.12"/>
    <path class="cls-1" d="M1804.81,3041.03c-1.52-3.21-2.39-6.91-2.49-11.58"/>
  </g>
  <g class="cls-4">
    <path class="cls-2" d="M1265.65,3285.2l-13.45,14.39c-8.66,9.27-24.2,3.33-24.48-9.35l-1.46-67.57c-1.86-86.12,58.74-139.99,165.01-142.28,106.27-2.29,169.59,48.91,171.45,135.03l1.46,67.57c.27,12.68-15,19.29-24.05,10.4l-14.06-13.8c-6.41-6.29-10.1-14.83-10.3-23.81l-.81-37.75c-1.22-56.49-44.18-89.55-122.61-87.86-78.43,1.69-119.47,36.56-118.25,93.05l.81,37.75c.19,8.98-3.13,17.67-9.26,24.23Z"/>
    <path class="cls-2" d="M1335.83,3017.01c4.34-24.12,35.08-36.14,72.65-29.38,25.31,4.55,39.06,18.87,36.14,35.08-4.63,25.7-34.29,36.29-71.07,29.67-26.89-4.84-40.86-17.97-37.73-35.37Z"/>
    <path class="cls-2" d="M1456.31,3367.47l4.98-.11c12.44-.27,20.47-12.87,28.77-32.46,8.37-16.1,15.63-25.97,31.39-26.31,24.06-.52,25.39,22.75,15.12,66.08-6.11,24.6-16.15,39.96-28.18,40.22-13.69.3-25.88-6.82-52.84-6.24l-109.93,2.37c-36.09.78-41.32,8.27-56.26,8.59-11.2.24-20.09-7.72-29.48-38.97-13.42-44.76-11.8-66.15,11.01-66.65,15.76-.34,23.85,9.19,32.91,24.92,9.12,18.83,18.11,31.45,29.72,31.2l5.39-.12"/>
    <path class="cls-2" d="M1338.17,3210.08c-6.94-4.5-14.71-7.95-14.96-19.82-.72-13.41,7.24-21.33,19.9-28.84,18.18-9.69,44.49-18.52,70.56-19.08,16.24-.35,26.61,4.59,27.06,25.76l2.86,152.31c.3,13.94,1.86,26.82,14.49,37.4,6.54,6.05,10.51,11.65,10.74,21.98.45,20.65-8.84,26.53-52.84,28l-32.48.7c-43.6.42-53.98-5.03-54.43-25.69-.22-10.32,3.07-16.08,9.78-22.42,11.74-10.59,12.72-24.55,12.45-37.46l-1.4-84.68c-.26-11.87-3.02-21.11-11.72-28.16Z"/>
    <path class="cls-1" d="M1329.03,3378.93c-.09-4.41.45-7.98,1.63-11.12"/>
    <path class="cls-1" d="M1466.28,3364.35c1.52,3.21,2.39,6.91,2.49,11.58"/>
  </g>
  <g class="cls-3">
    <path class="cls-2" d="M925.02,3380.19l14.39,13.45c9.27,8.66,3.33,24.2-9.35,24.48l-67.57,1.46c-86.12,1.86-139.99-58.74-142.28-165.01-2.29-106.27,48.91-169.59,135.03-171.45l67.57-1.46c12.68-.27,19.29,15,10.4,24.05l-13.8,14.06c-6.29,6.41-14.83,10.1-23.81,10.3l-37.75.81c-56.49,1.22-89.55,44.18-87.86,122.61,1.69,78.43,36.56,119.47,93.05,118.25l37.75-.81c8.98-.19,17.67,3.13,24.23,9.26Z"/>
    <path class="cls-2" d="M656.83,3310.01c-24.12-4.34-36.14-35.08-29.38-72.65,4.55-25.31,18.87-39.06,35.08-36.14,25.7,4.63,36.29,34.29,29.67,71.07-4.84,26.89-17.97,40.86-35.37,37.73Z"/>
    <path class="cls-2" d="M1007.29,3189.53l-.11-4.98c-.27-12.44-12.87-20.47-32.46-28.77-16.1-8.37-25.97-15.63-26.31-31.39-.52-24.06,22.75-25.39,66.08-15.12,24.6,6.11,39.96,16.15,40.22,28.18.3,13.69-6.82,25.88-6.24,52.84l2.37,109.93c.78,36.09,8.27,41.32,8.59,56.26.24,11.2-7.72,20.09-38.97,29.48-44.76,13.42-66.15,11.8-66.65-11.01-.34-15.76,9.19-23.85,24.92-32.91,18.83-9.12,31.45-18.11,31.2-29.72l-.12-5.39"/>
    <path class="cls-2" d="M849.9,3307.67c-4.5,6.94-7.95,14.71-19.82,14.96-13.41.72-21.33-7.24-28.84-19.9-9.69-18.18-18.52-44.49-19.08-70.56-.35-16.24,4.59-26.61,25.76-27.06l152.31-2.86c13.94-.3,26.82-1.86,37.4-14.49,6.05-6.54,11.65-10.51,21.98-10.74,20.65-.45,26.53,8.84,28,52.84l.7,32.48c.42,43.6-5.03,53.98-25.69,54.43-10.32.22-16.08-3.07-22.42-9.78-10.59-11.74-24.55-12.72-37.46-12.45l-84.68,1.4c-11.87.26-21.11,3.02-28.16,11.72Z"/>
    <path class="cls-1" d="M1018.75,3316.81c-4.41.09-7.98-.45-11.12-1.63"/>
    <path class="cls-1" d="M1004.16,3179.55c3.21-1.52,6.91-2.39,11.58-2.49"/>
  </g>
  <g class="cls-4">
    <path class="cls-2" d="M453,3120.17l13.45-14.39c8.66-9.27,24.2-3.33,24.48,9.35l1.46,67.57c1.86,86.12-58.74,139.99-165.01,142.28-106.27,2.29-169.59-48.91-171.45-135.03l-1.46-67.57c-.27-12.68,15-19.29,24.05-10.4l14.06,13.8c6.41,6.29,10.1,14.83,10.3,23.81l.81,37.75c1.22,56.49,44.18,89.55,122.61,87.86,78.43-1.69,119.47-36.56,118.25-93.05l-.81-37.75c-.19-8.98,3.13-17.67,9.26-24.23Z"/>
    <path class="cls-2" d="M382.82,3388.37c-4.34,24.12-35.08,36.14-72.65,29.38-25.31-4.55-39.06-18.87-36.14-35.08,4.63-25.7,34.29-36.29,71.07-29.67,26.89,4.84,40.86,17.97,37.73,35.37Z"/>
    <path class="cls-2" d="M262.34,3037.9l-4.98.11c-12.44.27-20.47,12.87-28.77,32.46-8.37,16.1-15.63,25.97-31.39,26.31-24.06.52-25.39-22.75-15.12-66.08,6.11-24.6,16.15-39.96,28.18-40.22,13.69-.3,25.88,6.82,52.84,6.24l109.93-2.37c36.09-.78,41.32-8.27,56.26-8.59,11.2-.24,20.09,7.72,29.48,38.97,13.42,44.76,11.8,66.15-11.01,66.65-15.76.34-23.85-9.19-32.91-24.92-9.12-18.83-18.11-31.45-29.72-31.2l-5.39.12"/>
    <path class="cls-2" d="M380.49,3195.3c6.94,4.5,14.71,7.95,14.96,19.82.72,13.41-7.24,21.33-19.9,28.84-18.18,9.69-44.49,18.52-70.56,19.08-16.24.35-26.61-4.59-27.06-25.76l-2.86-152.31c-.3-13.94-1.86-26.82-14.49-37.4-6.54-6.05-10.51-11.65-10.74-21.98-.45-20.65,8.84-26.53,52.84-28l32.48-.7c43.6-.42,53.98,5.03,54.43,25.69.22,10.32-3.07,16.08-9.78,22.42-11.74,10.59-12.72,24.55-12.45,37.46l1.4,84.68c.26,11.87,3.02,21.11,11.72,28.16Z"/>
    <path class="cls-1" d="M389.63,3026.44c.09,4.41-.45,7.98-1.63,11.12"/>
    <path class="cls-1" d="M252.37,3041.03c-1.52-3.21-2.39-6.91-2.49-11.58"/>
  </g>
</svg>